# This file uses centimeters as units for non-parametric coordinates.

mtllib BigBldg.mtl
g default
v -99.238867 -191.769946 90.001106
v -97.071356 -196.095169 90.001106
v -93.827450 -198.985183 90.001106
v -90.000999 -200.000000 90.001106
v -90.000999 -198.985183 93.827534
v -90.000999 -196.095169 97.071362
v -90.000999 -191.769946 99.238968
v -90.000999 -186.668026 100.000095
v -93.827450 -186.668026 99.238968
v -97.071356 -186.668026 97.071362
v -99.238867 -186.668026 93.827534
v -100.000000 -186.668026 90.001106
v 93.827450 -198.985183 90.001106
v 97.071356 -196.095169 90.001106
v 99.238867 -191.769946 90.001106
v 100.000000 -186.668026 90.001106
v 99.238867 -186.668026 93.827534
v 97.071356 -186.668026 97.071362
v 93.827450 -186.668026 99.238968
v 90.000999 -186.668026 100.000095
v 90.000999 -191.769946 99.238968
v 90.000999 -196.095169 97.071362
v 90.000999 -198.985183 93.827534
v 90.000999 -200.000000 90.001106
v -93.827450 198.985171 90.001106
v -97.071356 196.095157 90.001106
v -99.238867 191.769946 90.001106
v -100.000000 186.668015 90.001106
v -99.238867 186.668015 93.827534
v -97.071356 186.668015 97.071362
v -93.827450 186.668015 99.238968
v -90.000999 186.668015 100.000095
v -90.000999 191.769946 99.238968
v -90.000999 196.095157 97.071362
v -90.000999 198.985171 93.827534
v -90.000999 200.000000 90.001106
v 99.238867 191.769946 90.001106
v 97.071356 196.095157 90.001106
v 93.827450 198.985171 90.001106
v 90.000999 200.000000 90.001106
v 90.000999 198.985171 93.827534
v 90.000999 196.095157 97.071362
v 90.000999 191.769946 99.238968
v 90.000999 186.668015 100.000095
v 93.827450 186.668015 99.238968
v 97.071356 186.668015 97.071362
v 99.238867 186.668015 93.827534
v 100.000000 186.668015 90.001106
v -93.827450 186.668015 -99.238777
v -97.071356 186.668015 -97.071457
v -99.238867 186.668015 -93.827438
v -100.000000 186.668015 -90.001011
v -99.238867 191.769946 -90.001011
v -97.071356 196.095157 -90.001011
v -93.827450 198.985171 -90.001011
v -90.000999 200.000000 -90.001011
v -90.000999 198.985171 -93.827438
v -90.000999 196.095157 -97.071457
v -90.000999 191.769946 -99.238777
v -90.000999 186.668015 -100.000000
v 99.238867 186.668015 -93.827438
v 97.071356 186.668015 -97.071457
v 93.827450 186.668015 -99.238777
v 90.000999 186.668015 -100.000000
v 90.000999 191.769946 -99.238777
v 90.000999 196.095157 -97.071457
v 90.000999 198.985171 -93.827438
v 90.000999 200.000000 -90.001011
v 93.827450 198.985171 -90.001011
v 97.071356 196.095157 -90.001011
v 99.238867 191.769946 -90.001011
v 100.000000 186.668015 -90.001011
v -93.827450 -198.985183 -90.001011
v -97.071356 -196.095169 -90.001011
v -99.238867 -191.769946 -90.001011
v -100.000000 -186.668026 -90.001011
v -99.238867 -186.668026 -93.827438
v -97.071356 -186.668026 -97.071457
v -93.827450 -186.668026 -99.238777
v -90.000999 -186.668026 -100.000000
v -90.000999 -191.769946 -99.238777
v -90.000999 -196.095169 -97.071457
v -90.000999 -198.985183 -93.827438
v -90.000999 -200.000000 -90.001011
v 99.238867 -191.769946 -90.001011
v 97.071356 -196.095169 -90.001011
v 93.827450 -198.985183 -90.001011
v 90.000999 -200.000000 -90.001011
v 90.000999 -198.985183 -93.827438
v 90.000999 -196.095169 -97.071457
v 90.000999 -191.769946 -99.238777
v 90.000999 -186.668026 -100.000000
v 93.827450 -186.668026 -99.238777
v 97.071356 -186.668026 -97.071457
v 99.238867 -186.668026 -93.827438
v 100.000000 -186.668026 -90.001011
v -98.724759 -191.269791 93.452358
v -96.755010 -195.673358 92.931366
v -93.452322 -198.299682 93.452358
v -92.931211 -195.673358 96.755028
v -93.452322 -191.269791 98.724747
v -96.755010 -190.574968 96.755028
v -95.771909 -194.362557 95.771980
v 93.452322 -198.299682 93.452358
v 96.755010 -195.673358 92.931366
v 98.724759 -191.269791 93.452358
v 96.755010 -190.574968 96.755028
v 93.452322 -191.269791 98.724747
v 92.931211 -195.673358 96.755028
v 95.771909 -194.362557 95.771980
v -93.452322 198.299682 93.452358
v -96.755010 195.673358 92.931366
v -98.724759 191.269779 93.452358
v -96.755010 190.574980 96.755028
v -93.452322 191.269779 98.724747
v -92.931211 195.673358 96.755028
v -95.771909 194.362557 95.771980
v 98.724759 191.269779 93.452358
v 96.755010 195.673358 92.931366
v 93.452322 198.299682 93.452358
v 92.931211 195.673358 96.755028
v 93.452322 191.269779 98.724747
v 96.755010 190.574980 96.755028
v 95.771909 194.362557 95.771980
v -93.452322 191.269779 -98.724747
v -96.755010 190.574980 -96.755028
v -98.724759 191.269779 -93.452168
v -96.755010 195.673358 -92.931175
v -93.452322 198.299682 -93.452168
v -92.931211 195.673358 -96.755028
v -95.771909 194.362557 -95.771885
v 98.724759 191.269779 -93.452168
v 96.755010 190.574980 -96.755028
v 93.452322 191.269779 -98.724747
v 92.931211 195.673358 -96.755028
v 93.452322 198.299682 -93.452168
v 96.755010 195.673358 -92.931175
v 95.771909 194.362557 -95.771885
v -93.452322 -198.299682 -93.452168
v -96.755010 -195.673358 -92.931175
v -98.724759 -191.269791 -93.452168
v -96.755010 -190.574968 -96.755028
v -93.452322 -191.269791 -98.724747
v -92.931211 -195.673358 -96.755028
v -95.771909 -194.362557 -95.771885
v 98.724759 -191.269791 -93.452168
v 96.755010 -195.673358 -92.931175
v 93.452322 -198.299682 -93.452168
v 92.931211 -195.673358 -96.755028
v 93.452322 -191.269791 -98.724747
v 96.755010 -190.574968 -96.755028
v 95.771909 -194.362557 -95.771885
vt 0.245045 0.249776
vt 0.245045 0.253073
vt 0.011960 0.253073
vt 0.011960 0.249776
vt 0.250000 0.253073
vt 0.249515 0.250097
vt 0.245045 0.494793
vt 0.011960 0.494793
vt 0.007008 0.253073
vt 0.007496 0.250097
vt 0.245045 0.246973
vt 0.011960 0.246973
vt 0.250000 0.494793
vt 0.248839 0.247244
vt 0.253843 0.249909
vt 0.254202 0.253073
vt 0.245045 0.498096
vt 0.011960 0.498096
vt 0.007008 0.494793
vt 0.002810 0.253073
vt 0.003217 0.250548
vt 0.008169 0.247244
vt 0.254202 0.494793
vt 0.249515 0.497769
vt 0.252519 0.248096
vt 0.256917 0.249849
vt 0.257008 0.253074
vt 0.245045 0.500893
vt 0.011960 0.500893
vt 0.007496 0.497769
vt 0.002809 0.494793
vt 0.000000 0.253073
vt 0.000667 0.250097
vt 0.004489 0.248096
vt 0.257008 0.494792
vt 0.252899 0.498329
vt 0.248839 0.500622
vt 0.008169 0.500622
vt 0.003217 0.497318
vt 0.000000 0.494793
vt 0.256917 0.498017
vt 0.250930 0.500829
vt 0.004489 0.499770
vt 0.000667 0.497769
vt 0.511966 0.253073
vt 0.511966 0.249776
vt 0.745042 0.249777
vt 0.745042 0.253074
vt 0.507002 0.253073
vt 0.507496 0.250097
vt 0.511966 0.246973
vt 0.745042 0.246973
vt 0.750006 0.253074
vt 0.749512 0.250098
vt 0.745041 0.494794
vt 0.511966 0.494793
vt 0.507001 0.494793
vt 0.502803 0.253073
vt 0.503501 0.249244
vt 0.508163 0.247245
vt 0.748845 0.247245
vt 0.750006 0.494794
vt 0.753797 0.250542
vt 0.754205 0.253074
vt 0.511966 0.498090
vt 0.745041 0.498091
vt 0.507495 0.497769
vt 0.502803 0.494793
vt 0.500000 0.253074
vt 0.499801 0.249600
vt 0.504495 0.248097
vt 0.752513 0.248097
vt 0.749512 0.497770
vt 0.754204 0.494794
vt 0.756919 0.250098
vt 0.757008 0.253080
vt 0.511966 0.500894
vt 0.745041 0.500894
vt 0.508162 0.500622
vt 0.503501 0.498189
vt 0.500000 0.494792
vt 0.753797 0.497325
vt 0.748845 0.500622
vt 0.757008 0.494787
vt 0.504495 0.499770
vt 0.500089 0.498017
vt 0.756918 0.497770
vt 0.752513 0.499770
vt 0.261963 0.237808
vt 0.257008 0.237808
vt 0.257008 0.004724
vt 0.261963 0.004724
vt 0.261963 0.242763
vt 0.257493 0.242279
vt 0.252806 0.237808
vt 0.252806 0.004724
vt 0.261963 -0.000228
vt 0.257493 0.000259
vt 0.495048 0.004723
vt 0.495048 0.237808
vt 0.495048 0.242763
vt 0.261963 0.246965
vt 0.258169 0.246555
vt 0.253217 0.241603
vt 0.253217 0.000932
vt 0.495048 -0.000228
vt 0.258169 -0.004020
vt 0.261963 -0.004427
vt 0.500000 0.237808
vt 0.500000 0.004723
vt 0.499512 0.242279
vt 0.495048 0.246965
vt 0.261963 0.249771
vt 0.254489 0.245283
vt 0.254489 -0.002748
vt 0.495048 -0.004427
vt 0.499512 0.000259
vt 0.257493 -0.006570
vt 0.261963 -0.007237
vt 0.504198 0.237808
vt 0.504198 0.004723
vt 0.503791 0.241603
vt 0.498839 0.246554
vt 0.495048 0.249771
vt 0.253217 -0.004020
vt 0.495048 -0.007237
vt 0.498839 -0.004020
vt 0.503791 0.000932
vt 0.503331 0.245283
vt 0.499512 -0.006570
vt 0.502519 -0.002748
vt 0.503791 -0.004020
vt 0.252806 0.510061
vt 0.257008 0.510061
vt 0.257008 0.743137
vt 0.252806 0.743137
vt 0.257493 0.505591
vt 0.253217 0.506258
vt 0.261963 0.510061
vt 0.261963 0.743137
vt 0.253217 0.746940
vt 0.257493 0.747607
vt 0.261963 0.505097
vt 0.258169 0.501306
vt 0.254489 0.502590
vt 0.495048 0.510061
vt 0.495048 0.743137
vt 0.261963 0.748101
vt 0.258169 0.751892
vt 0.254489 0.750608
vt 0.495048 0.505097
vt 0.261963 0.500898
vt 0.500000 0.510061
vt 0.500000 0.743137
vt 0.495048 0.748101
vt 0.261963 0.752300
vt 0.257493 0.754436
vt 0.253217 0.751892
vt 0.495048 0.500898
vt 0.499512 0.505591
vt 0.261963 0.498095
vt 0.504198 0.510061
vt 0.504198 0.743137
vt 0.499512 0.747607
vt 0.495048 0.752300
vt 0.261963 0.755103
vt 0.495048 0.498095
vt 0.498839 0.501306
vt 0.503791 0.506258
vt 0.503791 0.746940
vt 0.498839 0.751892
vt 0.495048 0.755103
vt 0.502519 0.502590
vt 0.502519 0.750608
vt 0.499512 0.754436
vt 0.503791 0.751892
vt 0.261963 0.253075
vt 0.495048 0.253075
vt 0.495048 0.494792
vt 0.261963 0.494792
vt 1.000000 0.494782
vt 0.995045 0.494782
vt 0.995045 0.253087
vt 1.000000 0.253087
vt 0.995045 0.498091
vt 0.999515 0.497770
vt 0.761960 0.494781
vt 0.761960 0.253086
vt 0.995045 0.249777
vt 0.999515 0.250098
vt 0.761960 0.498091
vt 0.761960 0.249777
vn -0.005501 -0.999970 0.005501
vn -0.483214 -0.875493 0.004005
vn -0.483214 -0.875493 -0.004005
vn -0.005501 -0.999970 -0.005501
vn -0.800060 -0.599911 0.003303
vn -0.800060 -0.599911 -0.003303
vn -0.955074 -0.296349 0.003245
vn -0.955074 -0.296349 -0.003245
vn -0.999989 -0.002003 0.004130
vn -0.999989 -0.002003 -0.004130
vn -0.004130 -0.002003 0.999990
vn -0.003245 -0.296358 0.955072
vn 0.003245 -0.296358 0.955072
vn 0.004130 -0.002003 0.999990
vn -0.003303 -0.599913 0.800059
vn 0.003303 -0.599913 0.800059
vn -0.004005 -0.875491 0.483218
vn 0.004005 -0.875491 0.483218
vn 0.005501 -0.999970 0.005501
vn -0.923938 -0.001507 0.382540
vn -0.923938 0.001507 0.382540
vn -0.999989 0.002003 0.004130
vn -0.707107 -0.001397 0.707105
vn -0.707107 0.001397 0.707105
vn -0.382545 -0.001507 0.923936
vn -0.382545 0.001507 0.923936
vn -0.004130 0.002003 0.999990
vn 0.999989 -0.002003 0.004130
vn 0.955074 -0.296349 0.003245
vn 0.955074 -0.296349 -0.003245
vn 0.999989 -0.002003 -0.004130
vn 0.800060 -0.599911 0.003303
vn 0.800060 -0.599911 -0.003303
vn 0.483214 -0.875493 0.004005
vn 0.483214 -0.875493 -0.004005
vn 0.005501 -0.999970 -0.005501
vn 0.382545 -0.001507 0.923936
vn 0.382545 0.001507 0.923936
vn 0.004130 0.002003 0.999990
vn 0.707107 -0.001397 0.707105
vn 0.707107 0.001397 0.707105
vn 0.923938 -0.001507 0.382540
vn 0.923938 0.001507 0.382540
vn 0.999989 0.002003 0.004130
vn -0.955074 0.296349 0.003245
vn -0.955074 0.296349 -0.003245
vn -0.999989 0.002003 -0.004130
vn -0.800059 0.599912 0.003303
vn -0.800059 0.599912 -0.003303
vn -0.483215 0.875493 0.004005
vn -0.483215 0.875493 -0.004005
vn -0.005501 0.999970 0.005501
vn -0.005501 0.999970 -0.005501
vn -0.004005 0.875490 0.483220
vn 0.004005 0.875490 0.483220
vn 0.005501 0.999970 0.005501
vn -0.003303 0.599913 0.800058
vn 0.003303 0.599913 0.800058
vn -0.003245 0.296358 0.955072
vn 0.003245 0.296358 0.955072
vn 0.483215 0.875493 0.004005
vn 0.483215 0.875493 -0.004005
vn 0.005501 0.999970 -0.005501
vn 0.800059 0.599912 0.003303
vn 0.800059 0.599912 -0.003303
vn 0.955074 0.296349 0.003245
vn 0.955074 0.296349 -0.003245
vn 0.999989 0.002003 -0.004130
vn -0.923941 0.001507 -0.382531
vn -0.923941 -0.001507 -0.382531
vn -0.707101 0.001397 -0.707111
vn -0.707101 -0.001397 -0.707111
vn -0.382524 0.001507 -0.923944
vn -0.382524 -0.001507 -0.923944
vn -0.004130 0.002003 -0.999990
vn -0.004130 -0.002003 -0.999990
vn -0.003245 0.296340 -0.955077
vn 0.003245 0.296340 -0.955077
vn 0.004130 0.002003 -0.999990
vn -0.003303 0.599907 -0.800063
vn 0.003303 0.599907 -0.800063
vn -0.004005 0.875495 -0.483210
vn 0.004005 0.875495 -0.483210
vn 0.382524 0.001507 -0.923944
vn 0.382524 -0.001507 -0.923944
vn 0.004130 -0.002003 -0.999990
vn 0.707101 0.001397 -0.707111
vn 0.707101 -0.001397 -0.707111
vn 0.923941 0.001507 -0.382531
vn 0.923941 -0.001507 -0.382531
vn -0.004005 -0.875496 -0.483209
vn 0.004005 -0.875496 -0.483209
vn -0.003303 -0.599906 -0.800064
vn 0.003303 -0.599906 -0.800064
vn -0.003245 -0.296340 -0.955077
vn 0.003245 -0.296340 -0.955077
vn -0.902704 -0.257665 0.344577
vn -0.755345 -0.559927 0.340494
vn -0.417632 -0.806947 0.417637
vn -0.340485 -0.559926 0.755349
vn -0.344584 -0.257671 0.902700
vn -0.687133 -0.235990 0.687137
vn -0.623211 -0.472438 0.623226
vn 0.417632 -0.806947 0.417637
vn 0.755345 -0.559927 0.340494
vn 0.902704 -0.257665 0.344577
vn 0.687133 -0.235990 0.687137
vn 0.344584 -0.257671 0.902700
vn 0.340485 -0.559926 0.755349
vn 0.623210 -0.472438 0.623227
vn -0.417632 0.806948 0.417635
vn -0.755345 0.559927 0.340493
vn -0.902705 0.257665 0.344577
vn -0.687132 0.235990 0.687137
vn -0.344584 0.257671 0.902700
vn -0.340484 0.559927 0.755349
vn -0.623209 0.472439 0.623227
vn 0.902704 0.257665 0.344577
vn 0.755345 0.559927 0.340493
vn 0.417632 0.806948 0.417635
vn 0.340484 0.559927 0.755349
vn 0.344584 0.257671 0.902700
vn 0.687133 0.235990 0.687137
vn 0.623210 0.472438 0.623227
vn -0.344572 0.257661 -0.902708
vn -0.687139 0.235994 -0.687130
vn -0.902706 0.257667 -0.344572
vn -0.755345 0.559927 -0.340492
vn -0.417636 0.806949 -0.417629
vn -0.340492 0.559932 -0.755342
vn -0.623222 0.472447 -0.623208
vn 0.902706 0.257667 -0.344572
vn 0.687139 0.235993 -0.687130
vn 0.344572 0.257661 -0.902708
vn 0.340492 0.559932 -0.755342
vn 0.417636 0.806949 -0.417629
vn 0.755345 0.559927 -0.340493
vn 0.623222 0.472446 -0.623208
vn -0.417637 -0.806948 -0.417630
vn -0.755345 -0.559927 -0.340494
vn -0.902706 -0.257668 -0.344572
vn -0.687139 -0.235993 -0.687130
vn -0.344572 -0.257661 -0.902708
vn -0.340493 -0.559932 -0.755342
vn -0.623223 -0.472446 -0.623208
vn 0.902706 -0.257667 -0.344572
vn 0.755345 -0.559927 -0.340494
vn 0.417637 -0.806948 -0.417630
vn 0.340493 -0.559932 -0.755341
vn 0.344571 -0.257661 -0.902708
vn 0.687139 -0.235994 -0.687129
vn 0.623223 -0.472447 -0.623208
s 1
g BigBldg
usemtl lambert6SG
f 4/89/1 3/90/2 73/91/3 84/92/4
f 3/90/2 2/95/5 74/96/6 73/91/3
f 2/11/5 1/1/7 75/4/8 74/12/6
f 1/1/7 12/2/9 76/3/10 75/4/8
f 8/177/11 7/113/12 21/124/13 20/178/14
f 7/113/12 6/102/15 22/112/16 21/124/13
f 6/102/15 5/93/17 23/101/18 22/112/16
f 5/93/17 4/89/1 24/100/19 23/101/18
f 12/2/9 11/5/20 29/13/21 28/7/22
f 11/5/20 10/16/23 30/23/24 29/13/21
f 10/16/23 9/27/25 31/35/26 30/23/24
f 9/27/25 8/177/11 32/180/27 31/35/26
f 16/45/28 15/46/29 85/47/30 96/48/31
f 15/46/29 14/51/32 86/52/33 85/47/30
f 14/120/32 13/109/34 87/110/35 86/121/33
f 13/109/34 24/100/19 88/99/36 87/110/35
f 20/178/14 19/69/37 45/81/38 44/179/39
f 19/69/37 18/58/40 46/68/41 45/81/38
f 18/58/40 17/49/42 47/57/43 46/68/41
f 17/49/42 16/45/28 48/56/44 47/57/43
f 28/7/22 27/17/45 53/18/46 52/8/47
f 27/17/45 26/28/48 54/29/49 53/18/46
f 26/133/48 25/134/50 55/135/51 54/136/49
f 25/134/50 36/139/52 56/140/53 55/135/51
f 36/139/52 35/143/54 41/151/55 40/146/56
f 35/143/54 34/152/57 42/159/58 41/151/55
f 34/152/57 33/161/59 43/167/60 42/159/58
f 33/161/59 32/180/27 44/179/39 43/167/60
f 40/146/56 39/153/61 69/154/62 68/147/63
f 39/153/61 38/162/64 70/163/65 69/154/62
f 38/77/64 37/65/66 71/66/67 70/78/65
f 37/65/66 48/56/44 72/55/68 71/66/67
f 52/8/47 51/19/69 77/9/70 76/3/10
f 51/19/69 50/31/71 78/20/72 77/9/70
f 50/31/71 49/40/73 79/32/74 78/20/72
f 49/181/73 60/182/75 80/183/76 79/184/74
f 60/182/75 59/185/77 65/191/78 64/187/79
f 59/166/77 58/156/80 66/165/81 65/172/78
f 58/156/80 57/148/82 67/155/83 66/165/81
f 57/148/82 56/140/53 68/147/63 67/155/83
f 64/187/79 63/84/84 93/76/85 92/188/86
f 63/84/84 62/74/87 94/64/88 93/76/85
f 62/74/87 61/62/89 95/53/90 94/64/88
f 61/62/89 72/55/68 96/48/31 95/53/90
f 84/92/4 83/97/91 89/106/92 88/99/36
f 83/97/91 82/108/93 90/116/94 89/106/92
f 82/108/93 81/119/95 91/126/96 90/116/94
f 81/189/95 80/183/76 92/188/86 91/192/96
f 8/177/11 20/178/14 44/179/39 32/180/27
f 36/139/52 40/146/56 68/147/63 56/140/53
f 60/182/75 64/187/79 92/188/86 80/183/76
f 84/92/4 88/99/36 24/100/19 4/89/1
f 16/45/28 96/48/31 72/55/68 48/56/44
f 76/3/10 12/2/9 28/7/22 52/8/47
f 11/5/20 12/2/9 1/1/7 97/6/97
f 97/6/97 1/1/7 2/11/5 98/14/98
f 98/104/98 2/95/5 3/90/2 99/94/99
f 3/90/2 4/89/1 5/93/17 99/94/99
f 99/94/99 5/93/17 6/102/15 100/103/100
f 100/103/100 6/102/15 7/113/12 101/26/101
f 7/113/12 8/177/11 9/27/25 101/26/101
f 101/26/101 9/27/25 10/16/23 102/15/102
f 102/15/102 10/16/23 11/5/20 97/6/97
f 102/15/102 97/6/97 98/14/98 103/25/103
f 98/104/98 99/94/99 100/103/100 103/114/103
f 100/103/100 101/26/101 102/15/102 103/114/103
f 23/101/18 24/100/19 13/109/34 104/111/104
f 104/111/104 13/109/34 14/120/32 105/122/105
f 105/60/105 14/51/32 15/46/29 106/50/106
f 15/46/29 16/45/28 17/49/42 106/50/106
f 106/50/106 17/49/42 18/58/40 107/59/107
f 107/59/107 18/58/40 19/69/37 108/70/108
f 19/69/37 20/178/14 21/124/13 108/70/108
f 108/70/108 21/124/13 22/112/16 109/123/109
f 109/123/109 22/112/16 23/101/18 104/111/104
f 109/123/109 104/111/104 105/122/105 110/129/110
f 105/60/105 106/50/106 107/59/107 110/71/110
f 107/59/107 108/70/108 109/123/109 110/129/110
f 35/143/54 36/139/52 25/134/50 111/137/111
f 111/137/111 25/134/50 26/133/48 112/138/112
f 112/37/112 26/28/48 27/17/45 113/24/113
f 27/17/45 28/7/22 29/13/21 113/24/113
f 113/24/113 29/13/21 30/23/24 114/36/114
f 114/36/114 30/23/24 31/35/26 115/41/115
f 31/35/26 32/180/27 33/161/59 115/41/115
f 115/41/115 33/161/59 34/152/57 116/144/116
f 116/144/116 34/152/57 35/143/54 111/137/111
f 116/144/116 111/137/111 112/138/112 117/145/117
f 112/37/112 113/24/113 114/36/114 117/42/117
f 114/36/114 115/41/115 116/144/116 117/145/117
f 47/57/43 48/56/44 37/65/66 118/67/118
f 118/67/118 37/65/66 38/77/64 119/79/119
f 119/169/119 38/162/64 39/153/61 120/160/120
f 39/153/61 40/146/56 41/151/55 120/160/120
f 120/160/120 41/151/55 42/159/58 121/168/121
f 121/168/121 42/159/58 43/167/60 122/86/122
f 43/167/60 44/179/39 45/81/38 122/86/122
f 122/86/122 45/81/38 46/68/41 123/80/123
f 123/80/123 46/68/41 47/57/43 118/67/118
f 123/80/123 118/67/118 119/79/119 124/85/124
f 119/169/119 120/160/120 121/168/121 124/173/124
f 121/168/121 122/86/122 123/80/123 124/173/124
f 59/185/77 60/182/75 49/181/73 125/186/125
f 125/44/125 49/40/73 50/31/71 126/39/126
f 126/39/126 50/31/71 51/19/69 127/30/127
f 51/19/69 52/8/47 53/18/46 127/30/127
f 127/30/127 53/18/46 54/29/49 128/38/128
f 128/141/128 54/136/49 55/135/51 129/142/129
f 55/135/51 56/140/53 57/148/82 129/142/129
f 129/142/129 57/148/82 58/156/80 130/149/130
f 130/149/130 58/156/80 59/166/77 125/157/125
f 130/149/130 125/157/125 126/158/126 131/150/131
f 126/39/126 127/30/127 128/38/128 131/43/131
f 128/141/128 129/142/129 130/149/130 131/150/131
f 71/66/67 72/55/68 61/62/89 132/73/132
f 132/73/132 61/62/89 62/74/87 133/82/133
f 133/82/133 62/74/87 63/84/84 134/87/134
f 63/84/84 64/187/79 65/191/78 134/87/134
f 134/175/134 65/172/78 66/165/81 135/171/135
f 135/171/135 66/165/81 67/155/83 136/164/136
f 67/155/83 68/147/63 69/154/62 136/164/136
f 136/164/136 69/154/62 70/163/65 137/170/137
f 137/83/137 70/78/65 71/66/67 132/73/132
f 137/83/137 132/73/132 133/82/133 138/88/138
f 133/176/133 134/175/134 135/171/135 138/174/138
f 135/171/135 136/164/136 137/170/137 138/174/138
f 83/97/91 84/92/4 73/91/3 139/98/139
f 139/98/139 73/91/3 74/96/6 140/105/140
f 140/22/140 74/12/6 75/4/8 141/10/141
f 75/4/8 76/3/10 77/9/70 141/10/141
f 141/10/141 77/9/70 78/20/72 142/21/142
f 142/21/142 78/20/72 79/32/74 143/33/143
f 79/184/74 80/183/76 81/189/95 143/190/143
f 143/118/143 81/119/95 82/108/93 144/107/144
f 144/107/144 82/108/93 83/97/91 139/98/139
f 144/107/144 139/98/139 140/105/140 145/115/145
f 140/22/140 141/10/141 142/21/142 145/34/145
f 142/125/142 143/118/143 144/107/144 145/115/145
f 95/53/90 96/48/31 85/47/30 146/54/146
f 146/54/146 85/47/30 86/52/33 147/61/147
f 147/128/147 86/121/33 87/110/35 148/117/148
f 87/110/35 88/99/36 89/106/92 148/117/148
f 148/117/148 89/106/92 90/116/94 149/127/149
f 149/127/149 90/116/94 91/126/96 150/130/150
f 91/192/96 92/188/86 93/76/85 150/75/150
f 150/75/150 93/76/85 94/64/88 151/63/151
f 151/63/151 94/64/88 95/53/90 146/54/146
f 151/63/151 146/54/146 147/61/147 152/72/152
f 147/128/147 148/117/148 149/127/149 152/131/152
f 149/127/149 150/130/150 151/132/151 152/131/152
