# This file uses centimeters as units for non-parametric coordinates.

mtllib BigGateWall.mtl
g default
v -99.238867 -239.712432 90.001106
v -97.071356 -245.118961 90.001106
v -93.827450 -248.731479 90.001106
v -90.000999 -250.000000 90.001106
v -90.000999 -248.731479 93.827534
v -90.000999 -245.118961 97.071362
v -90.000999 -239.712432 99.238968
v -90.000999 -233.335033 100.000095
v -93.827450 -233.335033 99.238968
v -97.071356 -233.335033 97.071362
v -99.238867 -233.335033 93.827534
v -100.000000 -233.335033 90.001106
v 93.827450 -248.731479 90.001106
v 97.071356 -245.118961 90.001106
v 99.238867 -239.712432 90.001106
v 100.000000 -233.335033 90.001106
v 99.238867 -233.335033 93.827534
v 97.071356 -233.335033 97.071362
v 93.827450 -233.335033 99.238968
v 90.000999 -233.335033 100.000095
v 90.000999 -239.712432 99.238968
v 90.000999 -245.118961 97.071362
v 90.000999 -248.731479 93.827534
v 90.000999 -250.000000 90.001106
v -93.827450 248.731464 90.001106
v -97.071356 245.118946 90.001106
v -99.238867 239.712432 90.001106
v -100.000000 233.335018 90.001106
v -99.238867 233.335018 93.827534
v -97.071356 233.335018 97.071362
v -93.827450 233.335018 99.238968
v -90.000999 233.335018 100.000095
v -90.000999 239.712432 99.238968
v -90.000999 245.118946 97.071362
v -90.000999 248.731464 93.827534
v -90.000999 250.000000 90.001106
v 99.238867 239.712432 90.001106
v 97.071356 245.118946 90.001106
v 93.827450 248.731464 90.001106
v 90.000999 250.000000 90.001106
v 90.000999 248.731464 93.827534
v 90.000999 245.118946 97.071362
v 90.000999 239.712432 99.238968
v 90.000999 233.335018 100.000095
v 93.827450 233.335018 99.238968
v 97.071356 233.335018 97.071362
v 99.238867 233.335018 93.827534
v 100.000000 233.335018 90.001106
v -93.827450 233.335018 -99.238777
v -97.071356 233.335018 -97.071457
v -99.238867 233.335018 -93.827438
v -100.000000 233.335018 -90.001011
v -99.238867 239.712432 -90.001011
v -97.071356 245.118946 -90.001011
v -93.827450 248.731464 -90.001011
v -90.000999 250.000000 -90.001011
v -90.000999 248.731464 -93.827438
v -90.000999 245.118946 -97.071457
v -90.000999 239.712432 -99.238777
v -90.000999 233.335018 -100.000000
v 99.238867 233.335018 -93.827438
v 97.071356 233.335018 -97.071457
v 93.827450 233.335018 -99.238777
v 90.000999 233.335018 -100.000000
v 90.000999 239.712432 -99.238777
v 90.000999 245.118946 -97.071457
v 90.000999 248.731464 -93.827438
v 90.000999 250.000000 -90.001011
v 93.827450 248.731464 -90.001011
v 97.071356 245.118946 -90.001011
v 99.238867 239.712432 -90.001011
v 100.000000 233.335018 -90.001011
v -93.827450 -248.731479 -90.001011
v -97.071356 -245.118961 -90.001011
v -99.238867 -239.712432 -90.001011
v -100.000000 -233.335033 -90.001011
v -99.238867 -233.335033 -93.827438
v -97.071356 -233.335033 -97.071457
v -93.827450 -233.335033 -99.238777
v -90.000999 -233.335033 -100.000000
v -90.000999 -239.712432 -99.238777
v -90.000999 -245.118961 -97.071457
v -90.000999 -248.731479 -93.827438
v -90.000999 -250.000000 -90.001011
v 99.238867 -239.712432 -90.001011
v 97.071356 -245.118961 -90.001011
v 93.827450 -248.731479 -90.001011
v 90.000999 -250.000000 -90.001011
v 90.000999 -248.731479 -93.827438
v 90.000999 -245.118961 -97.071457
v 90.000999 -239.712432 -99.238777
v 90.000999 -233.335033 -100.000000
v 93.827450 -233.335033 -99.238777
v 97.071356 -233.335033 -97.071457
v 99.238867 -233.335033 -93.827438
v 100.000000 -233.335033 -90.001011
v -98.724759 -239.087239 93.452358
v -96.755010 -244.591698 92.931366
v -93.452322 -247.874603 93.452358
v -92.931211 -244.591698 96.755028
v -93.452322 -239.087239 98.724747
v -96.755010 -238.218710 96.755028
v -95.771909 -242.953196 95.771980
v 93.452322 -247.874603 93.452358
v 96.755010 -244.591698 92.931366
v 98.724759 -239.087239 93.452358
v 96.755010 -238.218710 96.755028
v 93.452322 -239.087239 98.724747
v 92.931211 -244.591698 96.755028
v 95.771909 -242.953196 95.771980
v -93.452322 247.874603 93.452358
v -96.755010 244.591698 92.931366
v -98.724759 239.087224 93.452358
v -96.755010 238.218725 96.755028
v -93.452322 239.087224 98.724747
v -92.931211 244.591698 96.755028
v -95.771909 242.953196 95.771980
v 98.724759 239.087224 93.452358
v 96.755010 244.591698 92.931366
v 93.452322 247.874603 93.452358
v 92.931211 244.591698 96.755028
v 93.452322 239.087224 98.724747
v 96.755010 238.218725 96.755028
v 95.771909 242.953196 95.771980
v -93.452322 239.087224 -98.724747
v -96.755010 238.218725 -96.755028
v -98.724759 239.087224 -93.452168
v -96.755010 244.591698 -92.931175
v -93.452322 247.874603 -93.452168
v -92.931211 244.591698 -96.755028
v -95.771909 242.953196 -95.771885
v 98.724759 239.087224 -93.452168
v 96.755010 238.218725 -96.755028
v 93.452322 239.087224 -98.724747
v 92.931211 244.591698 -96.755028
v 93.452322 247.874603 -93.452168
v 96.755010 244.591698 -92.931175
v 95.771909 242.953196 -95.771885
v -93.452322 -247.874603 -93.452168
v -96.755010 -244.591698 -92.931175
v -98.724759 -239.087239 -93.452168
v -96.755010 -238.218710 -96.755028
v -93.452322 -239.087239 -98.724747
v -92.931211 -244.591698 -96.755028
v -95.771909 -242.953196 -95.771885
v 98.724759 -239.087239 -93.452168
v 96.755010 -244.591698 -92.931175
v 93.452322 -247.874603 -93.452168
v 92.931211 -244.591698 -96.755028
v 93.452322 -239.087239 -98.724747
v 96.755010 -238.218710 -96.755028
v 95.771909 -242.953196 -95.771885
vt 0.257007 0.754956
vt 0.260310 0.754956
vt 0.260310 0.988037
vt 0.257007 0.988037
vt 0.260310 0.750001
vt 0.257331 0.750487
vt 0.502024 0.754956
vt 0.502024 0.988037
vt 0.260310 0.992992
vt 0.257331 0.992506
vt 0.254205 0.754956
vt 0.254205 0.988037
vt 0.502024 0.750001
vt 0.254483 0.751159
vt 0.257620 0.746192
vt 0.260310 0.745798
vt 0.505327 0.754956
vt 0.505327 0.988037
vt 0.502024 0.992992
vt 0.260310 0.997190
vt 0.257786 0.996781
vt 0.254483 0.991827
vt 0.502024 0.745799
vt 0.505003 0.750487
vt 0.255332 0.747481
vt 0.256837 0.742794
vt 0.260310 0.742993
vt 0.508129 0.754956
vt 0.508129 0.988037
vt 0.505003 0.992506
vt 0.502024 0.997191
vt 0.260310 1.000000
vt 0.257331 0.999328
vt 0.255332 0.995508
vt 0.502024 0.742993
vt 0.504623 0.746124
vt 0.507851 0.751159
vt 0.507851 0.991827
vt 0.504555 0.996782
vt 0.502024 1.000000
vt 0.505250 0.743082
vt 0.507002 0.747481
vt 0.507002 0.995508
vt 0.505003 0.999329
vt 0.260303 0.488039
vt 0.256999 0.488039
vt 0.256999 0.254954
vt 0.260302 0.254954
vt 0.260303 0.492994
vt 0.257339 0.492500
vt 0.254205 0.488039
vt 0.254205 0.254954
vt 0.260302 0.250000
vt 0.257338 0.250493
vt 0.502031 0.254954
vt 0.502032 0.488039
vt 0.502032 0.492994
vt 0.260303 0.497193
vt 0.257571 0.496876
vt 0.254483 0.491837
vt 0.254483 0.251157
vt 0.502031 0.249999
vt 0.257786 0.246218
vt 0.260302 0.245801
vt 0.505335 0.488039
vt 0.505335 0.254954
vt 0.504995 0.492500
vt 0.502032 0.497193
vt 0.260306 0.500002
vt 0.256839 0.500201
vt 0.255332 0.495510
vt 0.255332 0.247483
vt 0.504995 0.250493
vt 0.502031 0.245800
vt 0.257338 0.243080
vt 0.260302 0.242992
vt 0.508129 0.488039
vt 0.508129 0.254954
vt 0.507851 0.491836
vt 0.504763 0.496755
vt 0.502028 0.500002
vt 0.504563 0.246217
vt 0.507851 0.251157
vt 0.502031 0.242991
vt 0.507002 0.495510
vt 0.505246 0.499913
vt 0.504995 0.243080
vt 0.507002 0.247483
vt 0.245044 0.738038
vt 0.245044 0.742993
vt 0.011963 0.742993
vt 0.011963 0.738038
vt 0.249999 0.738038
vt 0.249513 0.742507
vt 0.245044 0.747196
vt 0.011963 0.747196
vt 0.007008 0.738038
vt 0.007494 0.742507
vt 0.011963 0.504957
vt 0.245044 0.504957
vt 0.249999 0.504957
vt 0.254202 0.738038
vt 0.253793 0.741835
vt 0.248841 0.746786
vt 0.008174 0.746787
vt 0.007008 0.504957
vt 0.003219 0.741835
vt 0.002809 0.738038
vt 0.245044 0.500002
vt 0.011963 0.500002
vt 0.249513 0.500488
vt 0.254201 0.504957
vt 0.257007 0.738038
vt 0.252519 0.745513
vt 0.004492 0.745513
vt 0.002809 0.504957
vt 0.007494 0.500488
vt 0.000672 0.742507
vt 0.000000 0.738038
vt 0.245044 0.495804
vt 0.011963 0.495804
vt 0.248841 0.496213
vt 0.253792 0.501168
vt 0.257007 0.504957
vt 0.003219 0.746787
vt 0.000000 0.504957
vt 0.003218 0.501168
vt 0.008173 0.496213
vt 0.252519 0.497486
vt 0.000671 0.500488
vt 0.004492 0.497486
vt 0.003218 0.496213
vt 0.517290 0.747195
vt 0.517290 0.742993
vt 0.750375 0.742993
vt 0.750375 0.747195
vt 0.512829 0.742507
vt 0.513493 0.746786
vt 0.517290 0.738038
vt 0.750375 0.738038
vt 0.754173 0.746786
vt 0.754836 0.742507
vt 0.512335 0.738038
vt 0.508554 0.741835
vt 0.509819 0.745513
vt 0.517290 0.504957
vt 0.750375 0.504957
vt 0.755330 0.738038
vt 0.759112 0.741835
vt 0.757846 0.745513
vt 0.512335 0.504957
vt 0.508137 0.738038
vt 0.517290 0.500002
vt 0.750375 0.500002
vt 0.755330 0.504957
vt 0.759529 0.738038
vt 0.761674 0.742507
vt 0.759112 0.746786
vt 0.508137 0.504957
vt 0.512829 0.500488
vt 0.505327 0.738038
vt 0.517290 0.495803
vt 0.750375 0.495803
vt 0.754836 0.500488
vt 0.759529 0.504957
vt 0.762338 0.738038
vt 0.505327 0.504957
vt 0.508554 0.501168
vt 0.513493 0.496213
vt 0.754173 0.496213
vt 0.759112 0.501167
vt 0.762338 0.504957
vt 0.509819 0.497486
vt 0.757846 0.497486
vt 0.761674 0.500488
vt 0.759112 0.496213
vt 0.260310 0.738038
vt 0.260310 0.504957
vt 0.502024 0.504957
vt 0.502024 0.738038
vt 0.502031 0.000000
vt 0.502031 0.004955
vt 0.260302 0.004956
vt 0.260302 0.000001
vt 0.505334 0.004955
vt 0.504994 0.000486
vt 0.502031 0.238036
vt 0.260302 0.238037
vt 0.256998 0.004956
vt 0.257338 0.000487
vt 0.505334 0.238036
vt 0.256999 0.238037
vn -0.006876 -0.999953 0.006876
vn -0.567872 -0.823103 0.004706
vn -0.567872 -0.823103 -0.004706
vn -0.006876 -0.999953 -0.006876
vn -0.857538 -0.514408 0.003540
vn -0.857538 -0.514408 -0.003540
vn -0.970540 -0.240919 0.003298
vn -0.970540 -0.240919 -0.003298
vn -0.999990 -0.001603 0.004130
vn -0.999990 -0.001603 -0.004130
vn -0.004130 -0.001603 0.999990
vn -0.003298 -0.240926 0.970538
vn 0.003298 -0.240926 0.970538
vn 0.004130 -0.001603 0.999990
vn -0.003541 -0.514410 0.857537
vn 0.003541 -0.514410 0.857537
vn -0.004706 -0.823100 0.567877
vn 0.004706 -0.823100 0.567877
vn 0.006876 -0.999953 0.006876
vn -0.923938 -0.001205 0.382540
vn -0.923938 0.001205 0.382540
vn -0.999990 0.001603 0.004130
vn -0.707107 -0.001117 0.707105
vn -0.707107 0.001117 0.707105
vn -0.382545 -0.001206 0.923936
vn -0.382545 0.001206 0.923936
vn -0.004130 0.001603 0.999990
vn 0.999990 -0.001603 0.004130
vn 0.970540 -0.240919 0.003298
vn 0.970540 -0.240919 -0.003298
vn 0.999990 -0.001603 -0.004130
vn 0.857538 -0.514408 0.003540
vn 0.857538 -0.514408 -0.003540
vn 0.567872 -0.823103 0.004706
vn 0.567872 -0.823103 -0.004706
vn 0.006876 -0.999953 -0.006876
vn 0.382545 -0.001206 0.923936
vn 0.382545 0.001206 0.923936
vn 0.004130 0.001603 0.999990
vn 0.707107 -0.001117 0.707105
vn 0.707107 0.001117 0.707105
vn 0.923938 -0.001205 0.382540
vn 0.923938 0.001205 0.382540
vn 0.999990 0.001603 0.004130
vn -0.970540 0.240919 0.003298
vn -0.970540 0.240919 -0.003298
vn -0.999990 0.001603 -0.004130
vn -0.857538 0.514409 0.003540
vn -0.857538 0.514409 -0.003540
vn -0.567873 0.823103 0.004706
vn -0.567873 0.823103 -0.004706
vn -0.006876 0.999953 0.006876
vn -0.006876 0.999953 -0.006876
vn -0.004706 0.823099 0.567878
vn 0.004706 0.823099 0.567878
vn 0.006876 0.999953 0.006876
vn -0.003541 0.514410 0.857537
vn 0.003541 0.514410 0.857537
vn -0.003298 0.240925 0.970538
vn 0.003298 0.240925 0.970538
vn 0.567873 0.823103 0.004706
vn 0.567873 0.823103 -0.004706
vn 0.006876 0.999953 -0.006876
vn 0.857538 0.514409 0.003540
vn 0.857538 0.514409 -0.003540
vn 0.970540 0.240919 0.003298
vn 0.970540 0.240919 -0.003298
vn 0.999990 0.001603 -0.004130
vn -0.923942 0.001206 -0.382531
vn -0.923942 -0.001206 -0.382531
vn -0.707101 0.001117 -0.707111
vn -0.707101 -0.001117 -0.707111
vn -0.382524 0.001205 -0.923945
vn -0.382524 -0.001205 -0.923945
vn -0.004130 0.001603 -0.999990
vn -0.004130 -0.001603 -0.999990
vn -0.003298 0.240911 -0.970542
vn 0.003298 0.240911 -0.970542
vn 0.004130 0.001603 -0.999990
vn -0.003541 0.514404 -0.857541
vn 0.003541 0.514404 -0.857541
vn -0.004706 0.823106 -0.567868
vn 0.004706 0.823106 -0.567868
vn 0.382524 0.001205 -0.923945
vn 0.382524 -0.001205 -0.923945
vn 0.004130 -0.001603 -0.999990
vn 0.707101 0.001117 -0.707111
vn 0.707101 -0.001117 -0.707111
vn 0.923942 0.001206 -0.382531
vn 0.923942 -0.001206 -0.382531
vn -0.004706 -0.823107 -0.567867
vn 0.004706 -0.823107 -0.567867
vn -0.003541 -0.514403 -0.857541
vn 0.003541 -0.514403 -0.857541
vn -0.003298 -0.240911 -0.970542
vn 0.003298 -0.240911 -0.970542
vn -0.913689 -0.208641 0.348770
vn -0.801957 -0.475583 0.361505
vn -0.477308 -0.737801 0.477313
vn -0.361496 -0.475583 0.801961
vn -0.348777 -0.208645 0.913686
vn -0.694126 -0.190713 0.694130
vn -0.649866 -0.394116 0.649882
vn 0.477307 -0.737801 0.477313
vn 0.801957 -0.475583 0.361505
vn 0.913689 -0.208641 0.348770
vn 0.694126 -0.190713 0.694131
vn 0.348777 -0.208645 0.913686
vn 0.361496 -0.475583 0.801961
vn 0.649865 -0.394116 0.649883
vn -0.477307 0.737802 0.477311
vn -0.801957 0.475584 0.361504
vn -0.913689 0.208640 0.348771
vn -0.694126 0.190713 0.694131
vn -0.348777 0.208645 0.913686
vn -0.361495 0.475583 0.801961
vn -0.649864 0.394117 0.649884
vn 0.913689 0.208640 0.348771
vn 0.801957 0.475584 0.361504
vn 0.477307 0.737802 0.477311
vn 0.361495 0.475583 0.801961
vn 0.348777 0.208645 0.913686
vn 0.694126 0.190713 0.694131
vn 0.649865 0.394116 0.649883
vn -0.348765 0.208637 -0.913692
vn -0.694133 0.190716 -0.694123
vn -0.913691 0.208642 -0.348765
vn -0.801957 0.475584 -0.361504
vn -0.477313 0.737803 -0.477304
vn -0.361504 0.475589 -0.801954
vn -0.649879 0.394124 -0.649864
vn 0.913691 0.208642 -0.348765
vn 0.694133 0.190716 -0.694123
vn 0.348765 0.208637 -0.913692
vn 0.361504 0.475589 -0.801954
vn 0.477313 0.737803 -0.477304
vn 0.801957 0.475584 -0.361504
vn 0.649879 0.394123 -0.649865
vn -0.477313 -0.737802 -0.477305
vn -0.801956 -0.475583 -0.361505
vn -0.913691 -0.208643 -0.348765
vn -0.694133 -0.190716 -0.694123
vn -0.348764 -0.208637 -0.913692
vn -0.361504 -0.475589 -0.801954
vn -0.649879 -0.394123 -0.649864
vn 0.913691 -0.208642 -0.348765
vn 0.801957 -0.475584 -0.361505
vn 0.477313 -0.737802 -0.477305
vn 0.361504 -0.475589 -0.801954
vn 0.348764 -0.208637 -0.913692
vn 0.694133 -0.190716 -0.694123
vn 0.649880 -0.394123 -0.649864
s 1
g BigGateWall
usemtl lambert11SG
f 4/89/1 3/90/2 73/91/3 84/92/4
f 3/90/2 2/95/5 74/96/6 73/91/3
f 2/11/5 1/1/7 75/4/8 74/12/6
f 1/1/7 12/2/9 76/3/10 75/4/8
f 8/177/11 7/113/12 21/124/13 20/178/14
f 7/113/12 6/102/15 22/112/16 21/124/13
f 6/102/15 5/93/17 23/101/18 22/112/16
f 5/93/17 4/89/1 24/100/19 23/101/18
f 12/2/9 11/5/20 29/13/21 28/7/22
f 11/5/20 10/16/23 30/23/24 29/13/21
f 10/16/23 9/27/25 31/35/26 30/23/24
f 9/27/25 8/177/11 32/180/27 31/35/26
f 16/45/28 15/46/29 85/47/30 96/48/31
f 15/46/29 14/51/32 86/52/33 85/47/30
f 14/120/32 13/109/34 87/110/35 86/121/33
f 13/109/34 24/100/19 88/99/36 87/110/35
f 20/178/14 19/69/37 45/81/38 44/179/39
f 19/69/37 18/58/40 46/68/41 45/81/38
f 18/58/40 17/49/42 47/57/43 46/68/41
f 17/49/42 16/45/28 48/56/44 47/57/43
f 28/7/22 27/17/45 53/18/46 52/8/47
f 27/17/45 26/28/48 54/29/49 53/18/46
f 26/133/48 25/134/50 55/135/51 54/136/49
f 25/134/50 36/139/52 56/140/53 55/135/51
f 36/139/52 35/143/54 41/151/55 40/146/56
f 35/143/54 34/152/57 42/159/58 41/151/55
f 34/152/57 33/161/59 43/167/60 42/159/58
f 33/161/59 32/180/27 44/179/39 43/167/60
f 40/146/56 39/153/61 69/154/62 68/147/63
f 39/153/61 38/162/64 70/163/65 69/154/62
f 38/77/64 37/65/66 71/66/67 70/78/65
f 37/65/66 48/56/44 72/55/68 71/66/67
f 52/8/47 51/19/69 77/9/70 76/3/10
f 51/19/69 50/31/71 78/20/72 77/9/70
f 50/31/71 49/40/73 79/32/74 78/20/72
f 49/181/73 60/182/75 80/183/76 79/184/74
f 60/182/75 59/185/77 65/191/78 64/187/79
f 59/166/77 58/156/80 66/165/81 65/172/78
f 58/156/80 57/148/82 67/155/83 66/165/81
f 57/148/82 56/140/53 68/147/63 67/155/83
f 64/187/79 63/84/84 93/76/85 92/188/86
f 63/84/84 62/74/87 94/64/88 93/76/85
f 62/74/87 61/62/89 95/53/90 94/64/88
f 61/62/89 72/55/68 96/48/31 95/53/90
f 84/92/4 83/97/91 89/106/92 88/99/36
f 83/97/91 82/108/93 90/116/94 89/106/92
f 82/108/93 81/119/95 91/126/96 90/116/94
f 81/189/95 80/183/76 92/188/86 91/192/96
f 8/177/11 20/178/14 44/179/39 32/180/27
f 36/139/52 40/146/56 68/147/63 56/140/53
f 60/182/75 64/187/79 92/188/86 80/183/76
f 84/92/4 88/99/36 24/100/19 4/89/1
f 16/45/28 96/48/31 72/55/68 48/56/44
f 76/3/10 12/2/9 28/7/22 52/8/47
f 11/5/20 12/2/9 1/1/7 97/6/97
f 97/6/97 1/1/7 2/11/5 98/14/98
f 98/104/98 2/95/5 3/90/2 99/94/99
f 3/90/2 4/89/1 5/93/17 99/94/99
f 99/94/99 5/93/17 6/102/15 100/103/100
f 100/103/100 6/102/15 7/113/12 101/26/101
f 7/113/12 8/177/11 9/27/25 101/26/101
f 101/26/101 9/27/25 10/16/23 102/15/102
f 102/15/102 10/16/23 11/5/20 97/6/97
f 102/15/102 97/6/97 98/14/98 103/25/103
f 98/104/98 99/94/99 100/103/100 103/114/103
f 100/103/100 101/26/101 102/15/102 103/114/103
f 23/101/18 24/100/19 13/109/34 104/111/104
f 104/111/104 13/109/34 14/120/32 105/122/105
f 105/60/105 14/51/32 15/46/29 106/50/106
f 15/46/29 16/45/28 17/49/42 106/50/106
f 106/50/106 17/49/42 18/58/40 107/59/107
f 107/59/107 18/58/40 19/69/37 108/70/108
f 19/69/37 20/178/14 21/124/13 108/70/108
f 108/70/108 21/124/13 22/112/16 109/123/109
f 109/123/109 22/112/16 23/101/18 104/111/104
f 109/123/109 104/111/104 105/122/105 110/129/110
f 105/60/105 106/50/106 107/59/107 110/71/110
f 107/59/107 108/70/108 109/123/109 110/129/110
f 35/143/54 36/139/52 25/134/50 111/137/111
f 111/137/111 25/134/50 26/133/48 112/138/112
f 112/37/112 26/28/48 27/17/45 113/24/113
f 27/17/45 28/7/22 29/13/21 113/24/113
f 113/24/113 29/13/21 30/23/24 114/36/114
f 114/36/114 30/23/24 31/35/26 115/41/115
f 31/35/26 32/180/27 33/161/59 115/41/115
f 115/41/115 33/161/59 34/152/57 116/144/116
f 116/144/116 34/152/57 35/143/54 111/137/111
f 116/144/116 111/137/111 112/138/112 117/145/117
f 112/37/112 113/24/113 114/36/114 117/42/117
f 114/36/114 115/41/115 116/144/116 117/145/117
f 47/57/43 48/56/44 37/65/66 118/67/118
f 118/67/118 37/65/66 38/77/64 119/79/119
f 119/169/119 38/162/64 39/153/61 120/160/120
f 39/153/61 40/146/56 41/151/55 120/160/120
f 120/160/120 41/151/55 42/159/58 121/168/121
f 121/168/121 42/159/58 43/167/60 122/86/122
f 43/167/60 44/179/39 45/81/38 122/86/122
f 122/86/122 45/81/38 46/68/41 123/80/123
f 123/80/123 46/68/41 47/57/43 118/67/118
f 123/80/123 118/67/118 119/79/119 124/85/124
f 119/169/119 120/160/120 121/168/121 124/173/124
f 121/168/121 122/86/122 123/80/123 124/173/124
f 59/185/77 60/182/75 49/181/73 125/186/125
f 125/44/125 49/40/73 50/31/71 126/39/126
f 126/39/126 50/31/71 51/19/69 127/30/127
f 51/19/69 52/8/47 53/18/46 127/30/127
f 127/30/127 53/18/46 54/29/49 128/38/128
f 128/141/128 54/136/49 55/135/51 129/142/129
f 55/135/51 56/140/53 57/148/82 129/142/129
f 129/142/129 57/148/82 58/156/80 130/149/130
f 130/149/130 58/156/80 59/166/77 125/157/125
f 130/149/130 125/157/125 126/158/126 131/150/131
f 126/39/126 127/30/127 128/38/128 131/43/131
f 128/141/128 129/142/129 130/149/130 131/150/131
f 71/66/67 72/55/68 61/62/89 132/73/132
f 132/73/132 61/62/89 62/74/87 133/82/133
f 133/82/133 62/74/87 63/84/84 134/87/134
f 63/84/84 64/187/79 65/191/78 134/87/134
f 134/175/134 65/172/78 66/165/81 135/171/135
f 135/171/135 66/165/81 67/155/83 136/164/136
f 67/155/83 68/147/63 69/154/62 136/164/136
f 136/164/136 69/154/62 70/163/65 137/170/137
f 137/83/137 70/78/65 71/66/67 132/73/132
f 137/83/137 132/73/132 133/82/133 138/88/138
f 133/176/133 134/175/134 135/171/135 138/174/138
f 135/171/135 136/164/136 137/170/137 138/174/138
f 83/97/91 84/92/4 73/91/3 139/98/139
f 139/98/139 73/91/3 74/96/6 140/105/140
f 140/22/140 74/12/6 75/4/8 141/10/141
f 75/4/8 76/3/10 77/9/70 141/10/141
f 141/10/141 77/9/70 78/20/72 142/21/142
f 142/21/142 78/20/72 79/32/74 143/33/143
f 79/184/74 80/183/76 81/189/95 143/190/143
f 143/118/143 81/119/95 82/108/93 144/107/144
f 144/107/144 82/108/93 83/97/91 139/98/139
f 144/107/144 139/98/139 140/105/140 145/115/145
f 140/22/140 141/10/141 142/21/142 145/34/145
f 142/125/142 143/118/143 144/107/144 145/115/145
f 95/53/90 96/48/31 85/47/30 146/54/146
f 146/54/146 85/47/30 86/52/33 147/61/147
f 147/128/147 86/121/33 87/110/35 148/117/148
f 87/110/35 88/99/36 89/106/92 148/117/148
f 148/117/148 89/106/92 90/116/94 149/127/149
f 149/127/149 90/116/94 91/126/96 150/130/150
f 91/192/96 92/188/86 93/76/85 150/75/150
f 150/75/150 93/76/85 94/64/88 151/63/151
f 151/63/151 94/64/88 95/53/90 146/54/146
f 151/63/151 146/54/146 147/61/147 152/72/152
f 147/128/147 148/117/148 149/127/149 152/131/152
f 149/127/149 150/130/150 151/132/151 152/131/152
