# This file uses centimeters as units for non-parametric coordinates.

mtllib GateTop.mtl
g default
v 246.384084 -24.852687 22.500420
v 247.770146 -24.310809 22.500420
v 248.921812 -23.514158 22.500420
v 250.130296 -22.500250 22.500420
v 249.881074 -22.500250 23.456955
v 249.542400 -22.500250 24.267960
v 249.035522 -22.500250 24.809837
v 248.437643 -22.500250 25.000381
v 247.025549 -23.385888 24.809837
v 245.546758 -24.310809 24.267960
v 245.313525 -24.852687 23.456955
v 245.313525 -25.042972 22.500420
v 310.963094 23.456863 22.500420
v 310.541630 24.267839 22.500420
v 309.910864 24.809717 22.500420
v 309.166849 25.000000 22.500420
v 309.166849 24.809717 23.456955
v 309.166849 24.267839 24.267960
v 309.166849 23.456863 24.809837
v 309.166849 22.500250 25.000381
v 309.910864 22.500250 24.809837
v 310.541630 22.500250 24.267960
v 310.963094 22.500250 23.456955
v 311.111122 22.500250 22.500420
v -248.839766 -23.456863 22.500420
v -247.751951 -24.267839 22.500420
v -246.683121 -24.809717 22.500420
v -245.660350 -25.000000 22.500420
v -245.660350 -24.809717 23.456955
v -245.862007 -24.267839 24.267960
v -246.962607 -23.456863 24.809837
v -248.437643 -22.500250 25.000381
v -249.035522 -22.500250 24.809837
v -249.542400 -22.500250 24.267960
v -249.881074 -22.500250 23.456955
v -250.000000 -22.500250 22.500420
v -309.910864 24.809717 22.500420
v -310.541630 24.267839 22.500420
v -310.963094 23.456863 22.500420
v -311.111122 22.500250 22.500420
v -310.963094 22.500250 23.456955
v -310.541630 22.500250 24.267960
v -309.910864 22.500250 24.809837
v -309.166849 22.500250 25.000381
v -309.166849 23.456863 24.809837
v -309.166849 24.267839 24.267960
v -309.166849 24.809717 23.456955
v -309.166849 25.000000 22.500420
v -246.962607 -23.456863 -24.809647
v -245.862007 -24.267839 -24.267769
v -245.660350 -24.809717 -23.456764
v -245.660350 -25.000000 -22.500229
v -246.683121 -24.809717 -22.500229
v -247.751951 -24.267839 -22.500229
v -248.839766 -23.456863 -22.500229
v -250.000000 -22.500250 -22.500229
v -249.881074 -22.500250 -23.456764
v -249.542400 -22.500250 -24.267769
v -249.035522 -22.500250 -24.809647
v -248.437643 -22.500250 -24.999619
v -309.166849 24.809717 -23.456764
v -309.166849 24.267839 -24.267769
v -309.166849 23.456863 -24.809647
v -309.166849 22.500250 -24.999619
v -309.910864 22.500250 -24.809647
v -310.541630 22.500250 -24.267769
v -310.963094 22.500250 -23.456764
v -311.111122 22.500250 -22.500229
v -310.963094 23.456863 -22.500229
v -310.541630 24.267839 -22.500229
v -309.910864 24.809717 -22.500229
v -309.166849 25.000000 -22.500229
v 248.921812 -23.514158 -22.500229
v 247.770146 -24.310809 -22.500229
v 246.384084 -24.852687 -22.500229
v 245.313525 -25.042972 -22.500229
v 245.313525 -24.852687 -23.456764
v 245.546758 -24.310809 -24.267769
v 247.025549 -23.385888 -24.809647
v 248.437643 -22.500250 -24.999619
v 249.035522 -22.500250 -24.809647
v 249.542400 -22.500250 -24.267769
v 249.881074 -22.500250 -23.456764
v 250.130296 -22.500250 -22.500229
v 309.910864 24.809717 -22.500229
v 310.541630 24.267839 -22.500229
v 310.963094 23.456863 -22.500229
v 311.111122 22.500250 -22.500229
v 310.963094 22.500250 -23.456764
v 310.541630 22.500250 -24.267769
v 309.910864 22.500250 -24.809647
v 309.166849 22.500250 -24.999619
v 309.166849 23.456863 -24.809647
v 309.166849 24.267839 -24.267769
v 309.166849 24.809717 -23.456764
v 309.166849 25.000000 -22.500229
v 246.325478 -24.724160 23.363304
v 247.590393 -24.231723 23.232841
v 248.711139 -23.420376 23.363304
v 248.344228 -23.349242 24.188995
v 247.718602 -23.363081 24.681282
v 246.477261 -24.231723 24.188995
v 247.436777 -23.985948 23.943138
v 310.863137 23.363081 23.363304
v 310.480118 24.188752 23.232841
v 309.837967 24.681190 23.363304
v 309.736609 24.188752 24.188995
v 309.837967 23.363081 24.681282
v 310.480118 23.232803 24.188995
v 310.288966 23.942977 23.943138
v -248.667672 -23.363081 23.363304
v -247.610763 -24.188752 23.232841
v -246.624514 -24.681190 23.363304
v -246.744722 -24.188752 24.188995
v -247.792065 -23.363081 24.681282
v -248.328820 -23.336436 24.188995
v -247.457147 -23.942977 23.943138
v -309.837967 24.681190 23.363304
v -310.480118 24.188752 23.232841
v -310.863137 23.363081 23.363304
v -310.480118 23.232803 24.188995
v -309.837967 23.363081 24.681282
v -309.736609 24.188752 24.188995
v -310.288966 23.942977 23.943138
v -247.792065 -23.363081 -24.681091
v -246.744722 -24.188752 -24.188423
v -246.624514 -24.681190 -23.362732
v -247.610763 -24.188752 -23.232651
v -248.667672 -23.363081 -23.362732
v -248.328820 -23.336436 -24.188423
v -247.457147 -23.942977 -23.942947
v -309.837967 24.681190 -23.362732
v -309.736609 24.188752 -24.188423
v -309.837967 23.363081 -24.681091
v -310.480118 23.232803 -24.188423
v -310.863137 23.363081 -23.362732
v -310.480118 24.188752 -23.232651
v -310.288966 23.942977 -23.942947
v 248.711139 -23.420376 -23.362732
v 247.590393 -24.231723 -23.232651
v 246.325478 -24.724160 -23.362732
v 246.477261 -24.231723 -24.188423
v 247.718602 -23.363081 -24.681091
v 248.344228 -23.349242 -24.188423
v 247.436777 -23.985948 -23.942947
v 309.837967 24.681190 -23.362732
v 310.480118 24.188752 -23.232651
v 310.863137 23.363081 -23.362732
v 310.480118 23.232803 -24.188423
v 309.837967 23.363081 -24.681091
v 309.736609 24.188752 -24.188423
v 310.288966 23.942977 -23.942947
vt 0.980008 0.895742
vt 0.970678 0.895742
vt 0.970677 0.106385
vt 0.980007 0.106385
vt 0.962767 0.896158
vt 0.962766 0.106058
vt 1.418815 0.895741
vt 1.418815 0.106384
vt 0.957487 0.897347
vt 0.957486 0.104870
vt 1.428127 0.106384
vt 1.428128 0.895741
vt 1.436047 0.106057
vt 1.436048 0.896157
vt 1.441327 0.104869
vt 1.441328 0.897346
vt 0.486818 0.998093
vt 0.477488 0.996548
vt 0.477488 0.005743
vt 0.486818 0.004213
vt 0.038671 0.996548
vt 0.038671 0.005743
vt 0.494711 1.002431
vt 0.494702 -0.000125
vt 0.029341 0.004213
vt 0.029350 0.998093
vt 0.500018 0.996548
vt 0.500018 0.005743
vt 0.021457 0.005743
vt 0.021448 1.002431
vt 0.016141 0.005747
vt 0.016141 0.996544
vt 0.477488 1.757706
vt 0.477488 1.773038
vt 0.038671 1.773038
vt 0.038671 1.757706
vt 0.486818 1.757706
vt 0.485896 1.771538
vt 0.477488 1.786038
vt 0.038671 1.786038
vt 0.029359 1.757706
vt 0.030263 1.771538
vt 0.038671 1.036602
vt 0.477488 1.036602
vt 0.486818 1.036602
vt 0.494720 1.757706
vt 0.493942 1.769443
vt 0.484612 1.784761
vt 0.477488 1.794715
vt 0.038671 1.794715
vt 0.031528 1.784761
vt 0.029359 1.036602
vt 0.022216 1.769443
vt 0.021439 1.757706
vt 0.477488 1.021270
vt 0.038671 1.021270
vt 0.485896 1.022815
vt 0.494720 1.036602
vt 0.500000 1.757706
vt 0.498752 1.771538
vt 0.491555 1.780824
vt 0.485896 1.792664
vt 0.477488 1.797761
vt 0.038671 1.797761
vt 0.030263 1.792664
vt 0.024603 1.780824
vt 0.021439 1.036602
vt 0.030263 1.022815
vt 0.017406 1.771538
vt 0.016159 1.757706
vt 0.477488 1.008315
vt 0.038671 1.008315
vt 0.484612 1.009563
vt 0.493942 1.024895
vt 0.500000 1.036602
vt 0.501862 1.757706
vt 0.500000 1.773038
vt 0.493942 1.784761
vt 0.486818 1.794715
vt 0.029359 1.794715
vt 0.022216 1.784761
vt 0.016159 1.036602
vt 0.022216 1.024895
vt 0.031528 1.009563
vt 0.016159 1.773038
vt 0.014314 1.757706
vt 0.477488 0.999638
vt 0.038671 0.999638
vt 0.485896 1.001659
vt 0.491555 1.013485
vt 0.498752 1.022815
vt 0.501862 1.036602
vt 0.494720 1.786038
vt 0.021439 1.786038
vt 0.014314 1.036602
vt 0.017406 1.022815
vt 0.024603 1.013485
vt 0.030263 1.001659
vt 0.493942 1.009563
vt 0.500000 1.021270
vt 0.016159 1.021270
vt 0.022216 1.009563
vt 0.477488 -0.795455
vt 0.477488 -0.792409
vt 0.038671 -0.792409
vt 0.038671 -0.795455
vt 0.486818 -0.792409
vt 0.485914 -0.790358
vt 0.477488 -0.783732
vt 0.038671 -0.783732
vt 0.029341 -0.792409
vt 0.030281 -0.790359
vt 0.494702 -0.783732
vt 0.493943 -0.782455
vt 0.484612 -0.782455
vt 0.477488 -0.770732
vt 0.038671 -0.770733
vt 0.031547 -0.782455
vt 0.022216 -0.782455
vt 0.021457 -0.783732
vt 0.500018 -0.770732
vt 0.498752 -0.769232
vt 0.491556 -0.778517
vt 0.485914 -0.769232
vt 0.477488 -0.755400
vt 0.038671 -0.755400
vt 0.030281 -0.769232
vt 0.024603 -0.778518
vt 0.017407 -0.769232
vt 0.016141 -0.770733
vt 0.501863 -0.755400
vt 0.500018 -0.755400
vt 0.493943 -0.767137
vt 0.486818 -0.755400
vt 0.477488 -0.034311
vt 0.038671 -0.034312
vt 0.029341 -0.755400
vt 0.022217 -0.767137
vt 0.016141 -0.755400
vt 0.014296 -0.755400
vt 0.501862 -0.034311
vt 0.500018 -0.034311
vt 0.494702 -0.755400
vt 0.486818 -0.034311
vt 0.477488 -0.018979
vt 0.038671 -0.018979
vt 0.029341 -0.034312
vt 0.021457 -0.755400
vt 0.016141 -0.034312
vt 0.014296 -0.034312
vt 0.500018 -0.018979
vt 0.498752 -0.020494
vt 0.494702 -0.034311
vt 0.485914 -0.020494
vt 0.477488 -0.005994
vt 0.038671 -0.005994
vt 0.030281 -0.020495
vt 0.021457 -0.034312
vt 0.016141 -0.018979
vt 0.017407 -0.020495
vt 0.493942 -0.007271
vt 0.493942 -0.022574
vt 0.484612 -0.007271
vt 0.477488 0.002683
vt 0.038671 0.002682
vt 0.031547 -0.007272
vt 0.022217 -0.022575
vt 0.022217 -0.007272
vt 0.021457 -0.005994
vt 0.485914 0.000632
vt 0.491555 -0.011194
vt 0.030281 0.000632
vt 0.024603 -0.011194
vt 0.948156 0.899234
vt 0.948156 0.103057
vt 0.509349 0.996548
vt 0.509348 0.005743
vt -0.441328 0.104877
vt -0.431997 0.103095
vt -0.431997 0.899196
vt -0.441328 0.897414
vt 0.006810 0.005751
vt 0.006810 0.996540
vn 0.594779 -0.803885 0.002597
vn 0.608490 -0.793552 0.003898
vn 0.608490 -0.793552 -0.003898
vn 0.594779 -0.803885 -0.002597
vn 0.466521 -0.884503 0.003427
vn 0.466521 -0.884503 -0.003427
vn 0.285285 -0.958438 0.003114
vn 0.285285 -0.958438 -0.003114
vn 0.000297 -0.999991 0.004138
vn 0.000297 -0.999991 -0.004138
vn 0.000307 -0.003493 0.999994
vn 0.416047 -0.565998 0.711724
vn 0.423381 -0.560870 0.711459
vn 0.000381 0.004496 0.999990
vn 0.547324 -0.743094 0.385029
vn 0.553977 -0.736374 0.388410
vn 0.582646 -0.789770 0.191799
vn 0.589928 -0.784106 0.192774
vn 0.602760 -0.797918 0.002581
vn 0.000182 -0.923307 0.384063
vn -0.000343 -0.923351 0.383957
vn -0.000472 -0.999991 0.004139
vn 0.000190 -0.684656 0.728867
vn -0.000257 -0.685843 0.727750
vn 0.000264 -0.363221 0.931703
vn -0.000240 -0.365174 0.930939
vn -0.000307 -0.003504 0.999994
vn 0.000306 0.999991 0.004139
vn 0.469311 0.883027 0.003086
vn 0.469311 0.883027 -0.003086
vn 0.000306 0.999991 -0.004139
vn 0.789198 0.614133 0.002569
vn 0.789198 0.614133 -0.002569
vn 0.951855 0.306539 0.002564
vn 0.951855 0.306539 -0.002564
vn 0.602760 -0.797918 -0.002581
vn 0.000208 0.382808 0.923828
vn -0.000208 0.382808 0.923828
vn -0.000381 0.004496 0.999990
vn 0.000195 0.707115 0.707099
vn -0.000195 0.707115 0.707099
vn 0.000208 0.923872 0.382701
vn -0.000208 0.923872 0.382701
vn -0.000306 0.999991 0.004139
vn -0.329913 -0.944006 0.003152
vn -0.329913 -0.944006 -0.003153
vn -0.000472 -0.999991 -0.004139
vn -0.531397 -0.847117 0.003216
vn -0.531397 -0.847117 -0.003216
vn -0.617796 -0.786332 0.003135
vn -0.617797 -0.786332 -0.003135
vn -0.593798 -0.804613 0.001743
vn -0.593798 -0.804613 -0.001743
vn -0.584343 -0.793410 0.170422
vn -0.592028 -0.787354 0.171981
vn -0.601948 -0.798533 0.001743
vn -0.547330 -0.743448 0.384337
vn -0.553977 -0.736374 0.388410
vn -0.416185 -0.565936 0.711693
vn -0.423381 -0.560870 0.711459
vn -0.951855 0.306539 0.002564
vn -0.951855 0.306539 -0.002564
vn -0.601948 -0.798533 -0.001743
vn -0.789198 0.614133 0.002569
vn -0.789198 0.614133 -0.002569
vn -0.469311 0.883027 0.003086
vn -0.469311 0.883027 -0.003086
vn -0.000306 0.999991 -0.004139
vn -0.000343 -0.923351 -0.383957
vn 0.000182 -0.923307 -0.384063
vn -0.000258 -0.685843 -0.727750
vn 0.000191 -0.684655 -0.728867
vn -0.000240 -0.364895 -0.931049
vn 0.000264 -0.362938 -0.931813
vn -0.000306 -0.003493 -0.999994
vn 0.000306 -0.003483 -0.999994
vn -0.416014 -0.565704 -0.711977
vn -0.423226 -0.560660 -0.711716
vn -0.000380 0.004482 -0.999990
vn -0.547329 -0.743449 -0.384336
vn -0.553979 -0.736373 -0.388411
vn -0.584342 -0.793410 -0.170422
vn -0.592028 -0.787354 -0.171982
vn -0.000208 0.382553 -0.923934
vn 0.000208 0.382553 -0.923934
vn 0.000380 0.004482 -0.999990
vn -0.000195 0.707114 -0.707099
vn 0.000195 0.707114 -0.707099
vn -0.000208 0.923872 -0.382701
vn 0.000208 0.923872 -0.382701
vn 0.582645 -0.789771 -0.191800
vn 0.589928 -0.784106 -0.192775
vn 0.547323 -0.743096 -0.385028
vn 0.553979 -0.736373 -0.388411
vn 0.415876 -0.565767 -0.712008
vn 0.423226 -0.560660 -0.711716
vn 0.251356 -0.919386 0.302572
vn 0.446679 -0.851700 0.274015
vn 0.565382 -0.784747 0.253997
vn 0.483434 -0.778526 0.400236
vn 0.303112 -0.682548 0.665020
vn 0.235788 -0.790945 0.564633
vn 0.416082 -0.810247 0.412767
vn 0.917954 0.280487 0.280514
vn 0.752137 0.601437 0.269375
vn 0.404054 0.858578 0.315571
vn 0.378112 0.654561 0.654662
vn 0.404084 0.315534 0.858577
vn 0.752101 0.269376 0.601482
vn 0.678703 0.519319 0.519297
vn -0.568344 -0.794262 0.214786
vn -0.511000 -0.820314 0.256833
vn -0.286318 -0.908840 0.303369
vn -0.267052 -0.792653 0.548074
vn -0.328799 -0.680849 0.654474
vn -0.502468 -0.790683 0.349780
vn -0.474275 -0.798852 0.369997
vn -0.404053 0.858577 0.315574
vn -0.752137 0.601437 0.269378
vn -0.917954 0.280488 0.280511
vn -0.752102 0.269376 0.601481
vn -0.404084 0.315534 0.858577
vn -0.378112 0.654560 0.654662
vn -0.678705 0.519320 0.519295
vn -0.328783 -0.680825 -0.654507
vn -0.267108 -0.792750 -0.547906
vn -0.286343 -0.908863 -0.303274
vn -0.510974 -0.820307 -0.256908
vn -0.568352 -0.794255 -0.214792
vn -0.502477 -0.790706 -0.349716
vn -0.474256 -0.798850 -0.370028
vn -0.404088 0.858603 -0.315458
vn -0.378221 0.654699 -0.654460
vn -0.404058 0.315522 -0.858593
vn -0.752154 0.269455 -0.601380
vn -0.917959 0.280485 -0.280498
vn -0.752103 0.601436 -0.269473
vn -0.678678 0.519279 -0.519370
vn 0.565389 -0.784739 -0.254008
vn 0.446655 -0.851687 -0.274096
vn 0.251378 -0.919408 -0.302487
vn 0.235842 -0.791059 -0.564449
vn 0.303117 -0.682574 -0.664991
vn 0.483449 -0.778553 -0.400166
vn 0.416066 -0.810234 -0.412809
vn 0.404087 0.858602 -0.315464
vn 0.752103 0.601435 -0.269476
vn 0.917960 0.280485 -0.280494
vn 0.752155 0.269455 -0.601380
vn 0.404058 0.315521 -0.858594
vn 0.378220 0.654701 -0.654459
vn 0.678679 0.519280 -0.519368
s 1
g GateTop
usemtl lambert13SG
f 4/33/1 3/34/2 73/35/3 84/36/4
f 3/34/2 2/39/5 74/40/6 73/35/3
f 2/39/5 1/49/7 75/50/8 74/40/6
f 1/49/7 12/63/9 76/64/10 75/50/8
f 8/76/11 7/59/12 21/75/13 20/92/14
f 7/59/12 6/46/15 22/58/16 21/75/13
f 6/46/15 5/37/17 23/45/18 22/58/16
f 5/37/17 4/33/1 24/44/19 23/45/18
f 12/1/9 11/2/20 29/3/21 28/4/22
f 11/2/20 10/5/23 30/6/24 29/3/21
f 10/5/23 9/9/25 31/10/26 30/6/24
f 9/9/25 8/174/11 32/175/27 31/10/26
f 16/18/28 15/87/29 85/88/30 96/21/31
f 15/87/29 14/71/32 86/72/33 85/88/30
f 14/71/32 13/55/34 87/56/35 86/72/33
f 13/55/34 24/44/19 88/43/36 87/56/35
f 20/176/14 19/27/37 45/28/38 44/177/39
f 19/27/37 18/23/40 46/24/41 45/28/38
f 18/23/40 17/17/42 47/20/43 46/24/41
f 17/17/42 16/18/28 48/19/44 47/20/43
f 28/103/22 27/104/45 53/105/46 52/106/47
f 27/104/45 26/109/48 54/110/49 53/105/46
f 26/109/48 25/116/50 55/117/51 54/110/49
f 25/116/50 36/125/52 56/126/53 55/117/51
f 36/125/52 35/134/54 41/144/55 40/135/56
f 35/134/54 34/143/57 42/153/58 41/144/55
f 34/143/57 33/132/59 43/142/60 42/153/58
f 33/132/59 32/131/27 44/141/39 43/142/60
f 40/135/56 39/145/61 69/146/62 68/136/63
f 39/145/61 38/155/64 70/156/65 69/146/62
f 38/155/64 37/164/66 71/165/67 70/156/65
f 37/164/66 48/19/44 72/22/68 71/165/67
f 52/8/47 51/11/69 77/12/70 76/7/10
f 51/11/69 50/13/71 78/14/72 77/12/70
f 50/13/71 49/15/73 79/16/74 78/14/72
f 49/178/73 60/179/75 80/180/76 79/181/74
f 60/140/75 59/139/77 65/149/78 64/150/79
f 59/139/77 58/148/80 66/158/81 65/149/78
f 58/148/80 57/137/82 67/147/83 66/158/81
f 57/137/82 56/126/53 68/136/63 67/147/83
f 64/182/79 63/31/84 93/32/85 92/183/86
f 63/31/84 62/29/87 94/30/88 93/32/85
f 62/29/87 61/25/89 95/26/90 94/30/88
f 61/25/89 72/22/68 96/21/31 95/26/90
f 84/36/4 83/41/91 89/52/92 88/43/36
f 83/41/91 82/54/93 90/67/94 89/52/92
f 82/54/93 81/70/95 91/82/96 90/67/94
f 81/70/95 80/86/76 92/95/86 91/82/96
f 8/174/11 20/176/14 44/177/39 32/175/27
f 36/125/52 40/135/56 68/136/63 56/126/53
f 60/179/75 64/182/79 92/183/86 80/180/76
f 84/36/4 88/43/36 24/44/19 4/33/1
f 16/18/28 96/21/31 72/22/68 48/19/44
f 76/7/10 12/1/9 28/4/22 52/8/47
f 11/79/20 12/63/9 1/49/7 97/62/97
f 97/62/97 1/49/7 2/39/5 98/48/98
f 98/48/98 2/39/5 3/34/2 99/38/99
f 3/34/2 4/33/1 5/37/17 99/38/99
f 99/38/99 5/37/17 6/46/15 100/47/100
f 100/47/100 6/46/15 7/59/12 101/60/101
f 7/59/12 8/76/11 9/77/25 101/60/101
f 101/60/101 9/77/25 10/93/23 102/78/102
f 102/78/102 10/93/23 11/79/20 97/62/97
f 102/78/102 97/62/97 98/48/98 103/61/103
f 98/48/98 99/38/99 100/47/100 103/61/103
f 100/47/100 101/60/101 102/78/102 103/61/103
f 23/45/18 24/44/19 13/55/34 104/57/104
f 104/57/104 13/55/34 14/71/32 105/73/105
f 105/73/105 14/71/32 15/87/29 106/89/106
f 15/87/29 16/18/28 17/17/42 106/89/106
f 106/89/106 17/17/42 18/23/40 107/99/107
f 107/99/107 18/23/40 19/100/37 108/91/108
f 19/100/37 20/92/14 21/75/13 108/91/108
f 108/91/108 21/75/13 22/58/16 109/74/109
f 109/74/109 22/58/16 23/45/18 104/57/104
f 109/74/109 104/57/104 105/73/105 110/90/110
f 105/73/105 106/89/106 107/99/107 110/90/110
f 107/99/107 108/91/108 109/74/109 110/90/110
f 35/134/54 36/125/52 25/116/50 111/124/111
f 111/124/111 25/116/50 26/109/48 112/115/112
f 112/115/112 26/109/48 27/104/45 113/108/113
f 27/104/45 28/103/22 29/107/21 113/108/113
f 113/108/113 29/107/21 30/113/24 114/114/114
f 114/114/114 30/113/24 31/121/26 115/122/115
f 31/121/26 32/131/27 33/132/59 115/122/115
f 115/122/115 33/132/59 34/143/57 116/133/116
f 116/133/116 34/143/57 35/134/54 111/124/111
f 116/133/116 111/124/111 112/115/112 117/123/117
f 112/115/112 113/108/113 114/114/114 117/123/117
f 114/114/114 115/122/115 116/133/116 117/123/117
f 47/20/43 48/19/44 37/164/66 118/170/118
f 118/170/118 37/164/66 38/155/64 119/163/119
f 119/163/119 38/155/64 39/145/61 120/154/120
f 39/145/61 40/135/56 41/144/55 120/154/120
f 120/154/120 41/144/55 42/153/58 121/162/121
f 121/162/121 42/153/58 43/142/60 122/152/122
f 43/142/60 44/141/39 45/151/38 122/152/122
f 122/152/122 45/151/38 46/24/41 123/161/123
f 123/161/123 46/24/41 47/20/43 118/170/118
f 123/161/123 118/170/118 119/163/119 124/171/124
f 119/163/119 120/154/120 121/162/121 124/171/124
f 121/162/121 122/152/122 123/161/123 124/171/124
f 59/139/77 60/140/75 49/130/73 125/129/125
f 125/129/125 49/130/73 50/120/71 126/119/126
f 126/119/126 50/120/71 51/111/69 127/112/127
f 51/111/69 52/106/47 53/105/46 127/112/127
f 127/112/127 53/105/46 54/110/49 128/118/128
f 128/118/128 54/110/49 55/117/51 129/127/129
f 55/117/51 56/126/53 57/137/82 129/127/129
f 129/127/129 57/137/82 58/148/80 130/138/130
f 130/138/130 58/148/80 59/139/77 125/129/125
f 130/138/130 125/129/125 126/119/126 131/128/131
f 126/119/126 127/112/127 128/118/128 131/128/131
f 128/118/128 129/127/129 130/138/130 131/128/131
f 71/165/67 72/22/68 61/25/89 132/172/132
f 132/172/132 61/25/89 62/169/87 133/168/133
f 133/168/133 62/169/87 63/159/84 134/160/134
f 63/159/84 64/150/79 65/149/78 134/160/134
f 134/160/134 65/149/78 66/158/81 135/167/135
f 135/167/135 66/158/81 67/147/83 136/157/136
f 67/147/83 68/136/63 69/146/62 136/157/136
f 136/157/136 69/146/62 70/156/65 137/166/137
f 137/166/137 70/156/65 71/165/67 132/172/132
f 137/166/137 132/172/132 133/168/133 138/173/138
f 133/168/133 134/160/134 135/167/135 138/173/138
f 135/167/135 136/157/136 137/166/137 138/173/138
f 83/41/91 84/36/4 73/35/3 139/42/139
f 139/42/139 73/35/3 74/40/6 140/51/140
f 140/51/140 74/40/6 75/50/8 141/65/141
f 75/50/8 76/64/10 77/80/70 141/65/141
f 141/65/141 77/80/70 78/94/72 142/81/142
f 142/81/142 78/94/72 79/85/74 143/69/143
f 79/85/74 80/86/76 81/70/95 143/69/143
f 143/69/143 81/70/95 82/54/93 144/53/144
f 144/53/144 82/54/93 83/41/91 139/42/139
f 144/53/144 139/42/139 140/51/140 145/66/145
f 140/51/140 141/65/141 142/81/142 145/66/145
f 142/81/142 143/69/143 144/53/144 145/66/145
f 95/26/90 96/21/31 85/88/30 146/98/146
f 146/98/146 85/88/30 86/72/33 147/84/147
f 147/84/147 86/72/33 87/56/35 148/68/148
f 87/56/35 88/43/36 89/52/92 148/68/148
f 148/68/148 89/52/92 90/67/94 149/83/149
f 149/83/149 90/67/94 91/82/96 150/96/150
f 91/82/96 92/95/86 93/101/85 150/96/150
f 150/96/150 93/101/85 94/30/88 151/102/151
f 151/102/151 94/30/88 95/26/90 146/98/146
f 151/102/151 146/98/146 147/84/147 152/97/152
f 147/84/147 148/68/148 149/83/149 152/97/152
f 149/83/149 150/96/150 151/102/151 152/97/152
