# This file uses centimeters as units for non-parametric coordinates.

mtllib Gate.mtl
g default
v -24.809717 -249.035522 22.500420
v -24.267839 -249.542400 22.500420
v -23.456863 -249.881074 22.500420
v -22.500250 -250.000000 22.500420
v -22.500250 -249.881074 23.456955
v -22.500250 -249.542400 24.267960
v -22.500250 -249.035522 24.809837
v -22.500250 -248.437643 25.000381
v -23.456863 -248.437643 24.809837
v -24.267839 -248.437643 24.267960
v -24.809717 -248.437643 23.456955
v -25.000000 -248.437643 22.500420
v 23.456863 -249.881074 22.500420
v 24.267839 -249.542400 22.500420
v 24.809717 -249.035522 22.500420
v 25.000000 -248.437643 22.500420
v 24.809717 -248.437643 23.456955
v 24.267839 -248.437643 24.267960
v 23.456863 -248.437643 24.809837
v 22.500250 -248.437643 25.000381
v 22.500250 -249.035522 24.809837
v 22.500250 -249.542400 24.267960
v 22.500250 -249.881074 23.456955
v 22.500250 -250.000000 22.500420
v -23.456863 249.881074 22.500420
v -24.267839 249.542400 22.500420
v -24.809717 249.035522 22.500420
v -25.000000 248.437643 22.500420
v -24.809717 248.437643 23.456955
v -24.267839 248.437643 24.267960
v -23.456863 248.437643 24.809837
v -22.500250 248.437643 25.000381
v -22.500250 249.035522 24.809837
v -22.500250 249.542400 24.267960
v -22.500250 249.881074 23.456955
v -22.500250 250.000000 22.500420
v 24.809717 249.035522 22.500420
v 24.267839 249.542400 22.500420
v 23.456863 249.881074 22.500420
v 22.500250 250.000000 22.500420
v 22.500250 249.881074 23.456955
v 22.500250 249.542400 24.267960
v 22.500250 249.035522 24.809837
v 22.500250 248.437643 25.000381
v 23.456863 248.437643 24.809837
v 24.267839 248.437643 24.267960
v 24.809717 248.437643 23.456955
v 25.000000 248.437643 22.500420
v -23.456863 248.437643 -24.809647
v -24.267839 248.437643 -24.267769
v -24.809717 248.437643 -23.456764
v -25.000000 248.437643 -22.500229
v -24.809717 249.035522 -22.500229
v -24.267839 249.542400 -22.500229
v -23.456863 249.881074 -22.500229
v -22.500250 250.000000 -22.500229
v -22.500250 249.881074 -23.456764
v -22.500250 249.542400 -24.267769
v -22.500250 249.035522 -24.809647
v -22.500250 248.437643 -24.999619
v 24.809717 248.437643 -23.456764
v 24.267839 248.437643 -24.267769
v 23.456863 248.437643 -24.809647
v 22.500250 248.437643 -24.999619
v 22.500250 249.035522 -24.809647
v 22.500250 249.542400 -24.267769
v 22.500250 249.881074 -23.456764
v 22.500250 250.000000 -22.500229
v 23.456863 249.881074 -22.500229
v 24.267839 249.542400 -22.500229
v 24.809717 249.035522 -22.500229
v 25.000000 248.437643 -22.500229
v -23.456863 -249.881074 -22.500229
v -24.267839 -249.542400 -22.500229
v -24.809717 -249.035522 -22.500229
v -25.000000 -248.437643 -22.500229
v -24.809717 -248.437643 -23.456764
v -24.267839 -248.437643 -24.267769
v -23.456863 -248.437643 -24.809647
v -22.500250 -248.437643 -24.999619
v -22.500250 -249.035522 -24.809647
v -22.500250 -249.542400 -24.267769
v -22.500250 -249.881074 -23.456764
v -22.500250 -250.000000 -22.500229
v 24.809717 -249.035522 -22.500229
v 24.267839 -249.542400 -22.500229
v 23.456863 -249.881074 -22.500229
v 22.500250 -250.000000 -22.500229
v 22.500250 -249.881074 -23.456764
v 22.500250 -249.542400 -24.267769
v 22.500250 -249.035522 -24.809647
v 22.500250 -248.437643 -24.999619
v 23.456863 -248.437643 -24.809647
v 24.267839 -248.437643 -24.267769
v 24.809717 -248.437643 -23.456764
v 25.000000 -248.437643 -22.500229
v -24.681190 -248.976916 23.363304
v -24.188752 -249.492943 23.232841
v -23.363081 -249.800712 23.363304
v -23.232803 -249.492943 24.188995
v -23.363081 -248.976916 24.681282
v -24.188752 -248.895466 24.188995
v -23.942977 -249.339327 23.943138
v 23.363081 -249.800712 23.363304
v 24.188752 -249.492943 23.232841
v 24.681190 -248.976916 23.363304
v 24.188752 -248.895466 24.188995
v 23.363081 -248.976916 24.681282
v 23.232803 -249.492943 24.188995
v 23.942977 -249.339327 23.943138
v -23.363081 249.800712 23.363304
v -24.188752 249.492943 23.232841
v -24.681190 248.976916 23.363304
v -24.188752 248.895466 24.188995
v -23.363081 248.976916 24.681282
v -23.232803 249.492943 24.188995
v -23.942977 249.339327 23.943138
v 24.681190 248.976916 23.363304
v 24.188752 249.492943 23.232841
v 23.363081 249.800712 23.363304
v 23.232803 249.492943 24.188995
v 23.363081 248.976916 24.681282
v 24.188752 248.895466 24.188995
v 23.942977 249.339327 23.943138
v -23.363081 248.976916 -24.681091
v -24.188752 248.895466 -24.188423
v -24.681190 248.976916 -23.362732
v -24.188752 249.492943 -23.232651
v -23.363081 249.800712 -23.362732
v -23.232803 249.492943 -24.188423
v -23.942977 249.339327 -23.942947
v 24.681190 248.976916 -23.362732
v 24.188752 248.895466 -24.188423
v 23.363081 248.976916 -24.681091
v 23.232803 249.492943 -24.188423
v 23.363081 249.800712 -23.362732
v 24.188752 249.492943 -23.232651
v 23.942977 249.339327 -23.942947
v -23.363081 -249.800712 -23.362732
v -24.188752 -249.492943 -23.232651
v -24.681190 -248.976916 -23.362732
v -24.188752 -248.895466 -24.188423
v -23.363081 -248.976916 -24.681091
v -23.232803 -249.492943 -24.188423
v -23.942977 -249.339327 -23.942947
v 24.681190 -248.976916 -23.362732
v 24.188752 -249.492943 -23.232651
v 23.363081 -249.800712 -23.362732
v 23.232803 -249.492943 -24.188423
v 23.363081 -248.976916 -24.681091
v 24.188752 -248.895466 -24.188423
v 23.942977 -249.339327 -23.942947
vt 0.278392 1.445672
vt 0.279466 -0.493796
vt 0.721656 1.445655
vt 0.758922 -0.493798
vt 0.278594 -0.003890
vt 0.721367 -0.003892
vt 0.759369 -0.003524
vt -0.198856 -0.493696
vt 0.277907 0.463538
vt 0.722104 0.463542
vt 1.198992 -0.003614
vt 1.198832 -0.493790
vt 0.722048 1.002829
vt 0.278367 0.978228
vt 0.721629 0.978230
vt 0.720510 -0.493818
vt 0.278058 0.020713
vt 0.721898 0.020711
vt 0.278334 0.488137
vt 0.721673 0.488142
vt 0.277945 1.002827
vt 0.241054 -0.493780
vt 0.240593 -0.003522
vt -0.199029 -0.003525
vt 0.242470 -0.495165
vt 0.261184 1.449273
vt 0.246292 -0.498919
vt 0.269060 1.447604
vt 0.276477 1.454926
vt 0.274176 -0.498985
vt 0.274817 1.462745
vt 0.278043 -0.495188
vt 0.269875 -0.493480
vt 0.260255 -0.493382
vt 0.250637 -0.493472
vt 0.730911 1.447570
vt 0.753633 -0.498986
vt 0.738730 1.449229
vt 0.757500 -0.495188
vt 0.749332 -0.493492
vt 0.739713 -0.493403
vt 0.730096 -0.493503
vt 0.721927 -0.495205
vt 0.725258 1.462861
vt 0.725749 -0.498959
vt 0.723588 1.454985
vt 0.268758 0.018669
vt 0.245884 0.001670
vt 0.260934 0.016970
vt 0.242015 -0.002131
vt 0.250156 -0.003818
vt 0.259731 -0.003913
vt 0.269189 -0.003926
vt 0.278522 -0.001940
vt 0.278341 0.003380
vt 0.278153 0.011322
vt 0.757953 -0.002139
vt 0.739155 0.016940
vt 0.754129 0.001618
vt 0.731275 0.018651
vt 0.721806 0.011323
vt 0.721620 0.003380
vt 0.721439 -0.001941
vt 0.730779 -0.003926
vt 0.740240 -0.003914
vt 0.749813 -0.003820
vt 0.268889 0.488734
vt -0.218150 -0.005017
vt 0.259370 0.489324
vt -0.208568 -0.004359
vt -0.200446 -0.002146
vt 0.260673 0.467307
vt -0.204266 0.001599
vt 0.268547 0.465597
vt 0.277966 0.472928
vt 0.278116 0.480872
vt 0.278271 0.486192
vt 1.208559 -0.004449
vt 0.740586 0.489326
vt 1.218165 -0.005108
vt 0.731092 0.488737
vt 0.721736 0.486197
vt 0.721892 0.480878
vt 0.722042 0.472935
vt 0.731386 0.465585
vt 1.204281 0.001560
vt 0.739204 0.467282
vt 1.200415 -0.002229
vt 0.268663 1.000784
vt -0.204145 -0.498869
vt 0.260845 0.999087
vt -0.200279 -0.495080
vt -0.208423 -0.492860
vt 0.259455 0.977043
vt -0.218030 -0.492201
vt 0.268949 0.977632
vt 0.278305 0.980172
vt 0.278151 0.985491
vt 0.278003 0.993434
vt 1.200249 -0.495170
vt 0.739282 0.999060
vt 1.204069 -0.498915
vt 0.731407 1.000769
vt 0.721993 0.993439
vt 0.721845 0.985495
vt 0.721692 0.980175
vt 0.731074 0.977633
vt 1.217953 -0.492298
vt 0.740593 0.977043
vt 1.208371 -0.492956
vt 0.250683 -0.494571
vt 0.261730 1.454628
vt 0.253112 -0.498431
vt 0.269155 1.454878
vt 0.267389 -0.498449
vt 0.269420 1.462268
vt 0.269826 -0.494581
vt 0.260255 -0.494275
vt 0.263320 1.460701
vt 0.260254 -0.497058
vt 0.730862 1.454891
vt 0.746848 -0.498461
vt 0.738252 1.454624
vt 0.749284 -0.494593
vt 0.739714 -0.494297
vt 0.730142 -0.494602
vt 0.730614 1.462316
vt 0.732571 -0.498461
vt 0.739712 -0.497079
vt 0.736685 1.460726
vt 0.268968 0.009718
vt 0.252884 0.001408
vt 0.261094 0.009637
vt 0.250268 -0.002652
vt 0.260083 -0.002681
vt 0.269890 -0.002351
vt 0.270173 0.002236
vt 0.261075 0.001097
vt 0.749704 -0.002656
vt 0.738930 0.009626
vt 0.747096 0.001395
vt 0.731031 0.009704
vt 0.729795 0.002238
vt 0.730073 -0.002351
vt 0.739896 -0.002684
vt 0.738904 0.001089
vt 0.269605 0.487065
vt -0.218096 -0.004032
vt 0.259964 0.487717
vt -0.208628 -0.003244
vt 0.261186 0.474551
vt -0.210855 0.000759
vt 0.269012 0.474538
vt 0.270172 0.482197
vt -0.217803 -0.001029
vt 0.261878 0.482903
vt 1.208621 -0.003332
vt 0.739995 0.487718
vt 1.218109 -0.004121
vt 0.730384 0.487068
vt 0.729815 0.482201
vt 0.730952 0.474532
vt 1.210852 0.000681
vt 0.738749 0.474543
vt 0.738087 0.482900
vt 1.217810 -0.001115
vt 0.269094 0.991837
vt -0.210716 -0.497991
vt 0.261298 0.991826
vt -0.208485 -0.493977
vt 0.260046 0.978651
vt -0.217974 -0.493188
vt 0.269657 0.979301
vt 0.270227 0.984168
vt -0.217675 -0.496195
vt 0.261955 0.983469
vt 1.208431 -0.494071
vt 0.738771 0.991815
vt 1.210658 -0.498074
vt 0.730946 0.991829
vt 0.729790 0.984170
vt 0.730358 0.979302
vt 1.217900 -0.493284
vt 0.739998 0.978650
vt 0.738083 0.983464
vt 1.217606 -0.496287
vn -0.002579 -0.999993 0.002579
vn -0.250518 -0.968110 0.002096
vn -0.250518 -0.968110 -0.002096
vn -0.002579 -0.999993 -0.002579
vn -0.530196 -0.847872 0.002218
vn -0.530196 -0.847872 -0.002218
vn -0.834079 -0.551637 0.002919
vn -0.834079 -0.551637 -0.002919
vn -0.999991 -0.000380 0.004139
vn -0.999991 -0.000380 -0.004139
vn -0.004145 -0.000381 0.999991
vn -0.002919 -0.551771 0.833990
vn 0.002919 -0.551771 0.833990
vn 0.004145 -0.000381 0.999991
vn -0.002218 -0.847878 0.530187
vn 0.002218 -0.847878 0.530187
vn -0.002095 -0.968109 0.250520
vn 0.002095 -0.968109 0.250520
vn 0.002579 -0.999993 0.002579
vn -0.923872 -0.000258 0.382702
vn -0.923872 0.000258 0.382702
vn -0.999991 0.000380 0.004139
vn -0.707115 -0.000241 0.707099
vn -0.707115 0.000241 0.707099
vn -0.382809 -0.000258 0.923828
vn -0.382809 0.000258 0.923828
vn -0.004145 0.000381 0.999991
vn 0.999991 -0.000380 0.004139
vn 0.834079 -0.551637 0.002918
vn 0.834079 -0.551637 -0.002919
vn 0.999991 -0.000380 -0.004139
vn 0.530196 -0.847872 0.002218
vn 0.530196 -0.847872 -0.002218
vn 0.250518 -0.968110 0.002096
vn 0.250518 -0.968110 -0.002096
vn 0.002579 -0.999993 -0.002579
vn 0.382809 -0.000258 0.923828
vn 0.382809 0.000258 0.923828
vn 0.004145 0.000381 0.999991
vn 0.707115 -0.000241 0.707099
vn 0.707115 0.000241 0.707099
vn 0.923872 -0.000258 0.382702
vn 0.923872 0.000258 0.382702
vn 0.999991 0.000380 0.004139
vn -0.834079 0.551637 0.002918
vn -0.834079 0.551637 -0.002919
vn -0.999991 0.000380 -0.004139
vn -0.530196 0.847872 0.002218
vn -0.530196 0.847872 -0.002218
vn -0.250518 0.968110 0.002096
vn -0.250518 0.968110 -0.002096
vn -0.002579 0.999993 0.002579
vn -0.002579 0.999993 -0.002579
vn -0.002095 0.968109 0.250520
vn 0.002095 0.968109 0.250520
vn 0.002579 0.999993 0.002579
vn -0.002218 0.847878 0.530187
vn 0.002218 0.847878 0.530187
vn -0.002919 0.551771 0.833990
vn 0.002919 0.551771 0.833990
vn 0.250518 0.968110 0.002096
vn 0.250518 0.968110 -0.002096
vn 0.002579 0.999993 -0.002579
vn 0.530196 0.847872 0.002218
vn 0.530196 0.847872 -0.002218
vn 0.834079 0.551637 0.002919
vn 0.834079 0.551637 -0.002919
vn 0.999991 0.000380 -0.004139
vn -0.923872 0.000258 -0.382702
vn -0.923872 -0.000258 -0.382702
vn -0.707114 0.000241 -0.707100
vn -0.707114 -0.000241 -0.707100
vn -0.382554 0.000258 -0.923933
vn -0.382554 -0.000258 -0.923933
vn -0.004132 0.000380 -0.999991
vn -0.004132 -0.000380 -0.999991
vn -0.002919 0.551474 -0.834187
vn 0.002919 0.551474 -0.834187
vn 0.004132 0.000380 -0.999991
vn -0.002221 0.847878 -0.530187
vn 0.002221 0.847878 -0.530187
vn -0.002097 0.968109 -0.250522
vn 0.002097 0.968109 -0.250522
vn 0.382554 0.000258 -0.923933
vn 0.382554 -0.000258 -0.923933
vn 0.004132 -0.000380 -0.999991
vn 0.707114 0.000241 -0.707100
vn 0.707114 -0.000241 -0.707100
vn 0.923872 0.000258 -0.382702
vn 0.923872 -0.000258 -0.382702
vn -0.002097 -0.968109 -0.250522
vn 0.002097 -0.968109 -0.250522
vn -0.002221 -0.847878 -0.530187
vn 0.002221 -0.847878 -0.530187
vn -0.002919 -0.551474 -0.834187
vn 0.002919 -0.551474 -0.834187
vn -0.822859 -0.481331 0.302033
vn -0.525444 -0.817629 0.235352
vn -0.231972 -0.944655 0.231982
vn -0.235363 -0.817610 0.525469
vn -0.301993 -0.481367 0.822852
vn -0.630456 -0.452670 0.630567
vn -0.463999 -0.754617 0.463958
vn 0.231973 -0.944657 0.231975
vn 0.525446 -0.817632 0.235340
vn 0.822858 -0.481331 0.302034
vn 0.630461 -0.452673 0.630561
vn 0.301995 -0.481369 0.822850
vn 0.235363 -0.817610 0.525469
vn 0.464000 -0.754617 0.463958
vn -0.231973 0.944657 0.231975
vn -0.525446 0.817632 0.235340
vn -0.822858 0.481331 0.302034
vn -0.630461 0.452673 0.630561
vn -0.301995 0.481369 0.822850
vn -0.235363 0.817610 0.525469
vn -0.464000 0.754617 0.463958
vn 0.822859 0.481331 0.302033
vn 0.525444 0.817629 0.235352
vn 0.231972 0.944655 0.231982
vn 0.235363 0.817610 0.525469
vn 0.301993 0.481367 0.822852
vn 0.630456 0.452670 0.630567
vn 0.463999 0.754617 0.463958
vn -0.301981 0.481338 -0.822874
vn -0.630581 0.452793 -0.630355
vn -0.822877 0.481368 -0.301923
vn -0.525448 0.817601 -0.235441
vn -0.231970 0.944659 -0.231969
vn -0.235426 0.817654 -0.525372
vn -0.463966 0.754595 -0.464027
vn 0.822877 0.481369 -0.301922
vn 0.630583 0.452798 -0.630348
vn 0.301983 0.481340 -0.822872
vn 0.235426 0.817654 -0.525372
vn 0.231970 0.944661 -0.231961
vn 0.525450 0.817603 -0.235428
vn 0.463966 0.754596 -0.464027
vn -0.231970 -0.944661 -0.231961
vn -0.525450 -0.817603 -0.235428
vn -0.822877 -0.481369 -0.301922
vn -0.630583 -0.452798 -0.630348
vn -0.301983 -0.481340 -0.822872
vn -0.235426 -0.817654 -0.525372
vn -0.463966 -0.754596 -0.464027
vn 0.822877 -0.481368 -0.301923
vn 0.525448 -0.817601 -0.235441
vn 0.231970 -0.944659 -0.231969
vn 0.235426 -0.817654 -0.525372
vn 0.301981 -0.481338 -0.822874
vn 0.630581 -0.452793 -0.630354
vn 0.463966 -0.754595 -0.464027
s 1
g Gate
usemtl lambert4SG
f 4/1/1 3/28/2 73/89/3 84/21/4
f 3/28/2 2/26/5 74/91/6 73/89/3
f 2/27/5 1/25/7 75/92/8 74/90/6
f 1/25/7 12/22/9 76/8/10 75/92/8
f 8/2/11 7/32/12 21/43/13 20/16/14
f 7/32/12 6/30/15 22/45/16 21/43/13
f 6/31/15 5/29/17 23/46/18 22/44/16
f 5/29/17 4/1/1 24/3/19 23/46/18
f 12/22/9 11/35/20 29/51/21 28/23/22
f 11/35/20 10/34/23 30/52/24 29/51/21
f 10/34/23 9/33/25 31/53/26 30/52/24
f 9/33/25 8/2/11 32/5/27 31/53/26
f 16/4/28 15/39/29 85/100/30 96/12/31
f 15/39/29 14/37/32 86/102/33 85/100/30
f 14/38/32 13/36/34 87/103/35 86/101/33
f 13/36/34 24/3/19 88/13/36 87/103/35
f 20/16/14 19/42/37 45/64/38 44/6/39
f 19/42/37 18/41/40 46/65/41 45/64/38
f 18/41/40 17/40/42 47/66/43 46/65/41
f 17/40/42 16/4/28 48/7/44 47/66/43
f 28/23/22 27/50/45 53/71/46 52/24/47
f 27/50/45 26/48/48 54/73/49 53/71/46
f 26/49/48 25/47/50 55/74/51 54/72/49
f 25/47/50 36/17/52 56/9/53 55/74/51
f 36/17/52 35/56/54 41/61/55 40/18/56
f 35/56/54 34/55/57 42/62/58 41/61/55
f 34/55/57 33/54/59 43/63/60 42/62/58
f 33/54/59 32/5/27 44/6/39 43/63/60
f 40/18/56 39/60/61 69/85/62 68/10/63
f 39/60/61 38/58/64 70/87/65 69/85/62
f 38/59/64 37/57/66 71/88/67 70/86/65
f 37/57/66 48/7/44 72/11/68 71/88/67
f 52/24/47 51/70/69 77/93/70 76/8/10
f 51/70/69 50/68/71 78/95/72 77/93/70
f 50/69/71 49/67/73 79/96/74 78/94/72
f 49/67/73 60/19/75 80/14/76 79/96/74
f 60/19/75 59/77/77 65/82/78 64/20/79
f 59/77/77 58/76/80 66/83/81 65/82/78
f 58/76/80 57/75/82 67/84/83 66/83/81
f 57/75/82 56/9/53 68/10/63 67/84/83
f 64/20/79 63/81/84 93/107/85 92/15/86
f 63/81/84 62/79/87 94/109/88 93/107/85
f 62/80/87 61/78/89 95/110/90 94/108/88
f 61/78/89 72/11/68 96/12/31 95/110/90
f 84/21/4 83/99/91 89/104/92 88/13/36
f 83/99/91 82/98/93 90/105/94 89/104/92
f 82/98/93 81/97/95 91/106/96 90/105/94
f 81/97/95 80/14/76 92/15/86 91/106/96
f 8/2/11 20/16/14 44/6/39 32/5/27
f 36/17/52 40/18/56 68/10/63 56/9/53
f 60/19/75 64/20/79 92/15/86 80/14/76
f 84/21/4 88/13/36 24/3/19 4/1/1
f 16/4/28 96/12/31 72/11/68 48/7/44
f 76/8/10 12/22/9 28/23/22 52/24/47
f 11/35/20 12/22/9 1/25/7 97/111/97
f 97/111/97 1/25/7 2/27/5 98/113/98
f 98/112/98 2/26/5 3/28/2 99/114/99
f 3/28/2 4/1/1 5/29/17 99/114/99
f 99/114/99 5/29/17 6/31/15 100/116/100
f 100/115/100 6/30/15 7/32/12 101/117/101
f 7/32/12 8/2/11 9/33/25 101/117/101
f 101/117/101 9/33/25 10/34/23 102/118/102
f 102/118/102 10/34/23 11/35/20 97/111/97
f 102/118/102 97/111/97 98/113/98 103/120/103
f 98/112/98 99/114/99 100/116/100 103/119/103
f 100/115/100 101/117/101 102/118/102 103/120/103
f 23/46/18 24/3/19 13/36/34 104/121/104
f 104/121/104 13/36/34 14/38/32 105/123/105
f 105/122/105 14/37/32 15/39/29 106/124/106
f 15/39/29 16/4/28 17/40/42 106/124/106
f 106/124/106 17/40/42 18/41/40 107/125/107
f 107/125/107 18/41/40 19/42/37 108/126/108
f 19/42/37 20/16/14 21/43/13 108/126/108
f 108/126/108 21/43/13 22/45/16 109/128/109
f 109/127/109 22/44/16 23/46/18 104/121/104
f 109/127/109 104/121/104 105/123/105 110/130/110
f 105/122/105 106/124/106 107/125/107 110/129/110
f 107/125/107 108/126/108 109/128/109 110/129/110
f 35/56/54 36/17/52 25/47/50 111/131/111
f 111/131/111 25/47/50 26/49/48 112/133/112
f 112/132/112 26/48/48 27/50/45 113/134/113
f 27/50/45 28/23/22 29/51/21 113/134/113
f 113/134/113 29/51/21 30/52/24 114/135/114
f 114/135/114 30/52/24 31/53/26 115/136/115
f 31/53/26 32/5/27 33/54/59 115/136/115
f 115/136/115 33/54/59 34/55/57 116/137/116
f 116/137/116 34/55/57 35/56/54 111/131/111
f 116/137/116 111/131/111 112/133/112 117/138/117
f 112/132/112 113/134/113 114/135/114 117/138/117
f 114/135/114 115/136/115 116/137/116 117/138/117
f 47/66/43 48/7/44 37/57/66 118/139/118
f 118/139/118 37/57/66 38/59/64 119/141/119
f 119/140/119 38/58/64 39/60/61 120/142/120
f 39/60/61 40/18/56 41/61/55 120/142/120
f 120/142/120 41/61/55 42/62/58 121/143/121
f 121/143/121 42/62/58 43/63/60 122/144/122
f 43/63/60 44/6/39 45/64/38 122/144/122
f 122/144/122 45/64/38 46/65/41 123/145/123
f 123/145/123 46/65/41 47/66/43 118/139/118
f 123/145/123 118/139/118 119/141/119 124/146/124
f 119/140/119 120/142/120 121/143/121 124/146/124
f 121/143/121 122/144/122 123/145/123 124/146/124
f 59/77/77 60/19/75 49/67/73 125/147/125
f 125/147/125 49/67/73 50/69/71 126/149/126
f 126/148/126 50/68/71 51/70/69 127/150/127
f 51/70/69 52/24/47 53/71/46 127/150/127
f 127/150/127 53/71/46 54/73/49 128/152/128
f 128/151/128 54/72/49 55/74/51 129/153/129
f 55/74/51 56/9/53 57/75/82 129/153/129
f 129/153/129 57/75/82 58/76/80 130/154/130
f 130/154/130 58/76/80 59/77/77 125/147/125
f 130/154/130 125/147/125 126/149/126 131/156/131
f 126/148/126 127/150/127 128/152/128 131/155/131
f 128/151/128 129/153/129 130/154/130 131/156/131
f 71/88/67 72/11/68 61/78/89 132/157/132
f 132/157/132 61/78/89 62/80/87 133/159/133
f 133/158/133 62/79/87 63/81/84 134/160/134
f 63/81/84 64/20/79 65/82/78 134/160/134
f 134/160/134 65/82/78 66/83/81 135/161/135
f 135/161/135 66/83/81 67/84/83 136/162/136
f 67/84/83 68/10/63 69/85/62 136/162/136
f 136/162/136 69/85/62 70/87/65 137/164/137
f 137/163/137 70/86/65 71/88/67 132/157/132
f 137/163/137 132/157/132 133/159/133 138/166/138
f 133/158/133 134/160/134 135/161/135 138/165/138
f 135/161/135 136/162/136 137/164/137 138/165/138
f 83/99/91 84/21/4 73/89/3 139/167/139
f 139/167/139 73/89/3 74/91/6 140/169/140
f 140/168/140 74/90/6 75/92/8 141/170/141
f 75/92/8 76/8/10 77/93/70 141/170/141
f 141/170/141 77/93/70 78/95/72 142/172/142
f 142/171/142 78/94/72 79/96/74 143/173/143
f 79/96/74 80/14/76 81/97/95 143/173/143
f 143/173/143 81/97/95 82/98/93 144/174/144
f 144/174/144 82/98/93 83/99/91 139/167/139
f 144/174/144 139/167/139 140/169/140 145/176/145
f 140/168/140 141/170/141 142/172/142 145/175/145
f 142/171/142 143/173/143 144/174/144 145/176/145
f 95/110/90 96/12/31 85/100/30 146/177/146
f 146/177/146 85/100/30 86/102/33 147/179/147
f 147/178/147 86/101/33 87/103/35 148/180/148
f 87/103/35 88/13/36 89/104/92 148/180/148
f 148/180/148 89/104/92 90/105/94 149/181/149
f 149/181/149 90/105/94 91/106/96 150/182/150
f 91/106/96 92/15/86 93/107/85 150/182/150
f 150/182/150 93/107/85 94/109/88 151/184/151
f 151/183/151 94/108/88 95/110/90 146/177/146
f 151/183/151 146/177/146 147/179/147 152/186/152
f 147/178/147 148/180/148 149/181/149 152/185/152
f 149/181/149 150/182/150 151/184/151 152/185/152
