# This file uses centimeters as units for non-parametric coordinates.

mtllib InnerWall.mtl
g default
v -199.619424 -96.913755 45.000553
v -198.535669 -98.535705 45.000553
v -196.913719 -99.619436 45.000553
v -195.000482 -100.000024 45.000553
v -195.000482 -99.619436 46.913791
v -195.000482 -98.535705 48.535728
v -195.000482 -96.913755 49.619508
v -195.000482 -95.000529 50.000072
v -196.913719 -95.000529 49.619508
v -198.535669 -95.000529 48.535728
v -199.619424 -95.000529 46.913791
v -200.000000 -95.000529 45.000553
v 196.913719 -99.619436 45.000553
v 198.535669 -98.535705 45.000553
v 199.619424 -96.913755 45.000553
v 200.000000 -95.000529 45.000553
v 199.619424 -95.000529 46.913791
v 198.535669 -95.000529 48.535728
v 196.913719 -95.000529 49.619508
v 195.000482 -95.000529 50.000072
v 195.000482 -96.913755 49.619508
v 195.000482 -98.535705 48.535728
v 195.000482 -99.619436 46.913791
v 195.000482 -100.000024 45.000553
v -196.913719 99.619412 45.000553
v -198.535669 98.535657 45.000553
v -199.619424 96.913671 45.000553
v -200.000000 95.000458 45.000553
v -199.619424 95.000458 46.913791
v -198.535669 95.000458 48.535728
v -196.913719 95.000458 49.619508
v -195.000482 95.000458 50.000072
v -195.000482 96.913671 49.619508
v -195.000482 98.535657 48.535728
v -195.000482 99.619412 46.913791
v -195.000482 99.999976 45.000553
v 199.619424 96.913671 45.000553
v 198.535669 98.535657 45.000553
v 196.913719 99.619412 45.000553
v 195.000482 99.999976 45.000553
v 195.000482 99.619412 46.913791
v 195.000482 98.535657 48.535728
v 195.000482 96.913671 49.619508
v 195.000482 95.000458 50.000072
v 196.913719 95.000458 49.619508
v 198.535669 95.000458 48.535728
v 199.619424 95.000458 46.913791
v 200.000000 95.000458 45.000553
v -196.913719 95.000458 -49.619341
v -198.535669 95.000458 -48.535633
v -199.619424 95.000458 -46.913624
v -200.000000 95.000458 -45.000410
v -199.619424 96.913671 -45.000410
v -198.535669 98.535657 -45.000410
v -196.913719 99.619412 -45.000410
v -195.000482 99.999976 -45.000410
v -195.000482 99.619412 -46.913624
v -195.000482 98.535657 -48.535633
v -195.000482 96.913671 -49.619341
v -195.000482 95.000458 -49.999905
v 199.619424 95.000458 -46.913624
v 198.535669 95.000458 -48.535633
v 196.913719 95.000458 -49.619341
v 195.000482 95.000458 -49.999905
v 195.000482 96.913671 -49.619341
v 195.000482 98.535657 -48.535633
v 195.000482 99.619412 -46.913624
v 195.000482 99.999976 -45.000410
v 196.913719 99.619412 -45.000410
v 198.535669 98.535657 -45.000410
v 199.619424 96.913671 -45.000410
v 200.000000 95.000458 -45.000410
v -196.913719 -99.619436 -45.000410
v -198.535669 -98.535705 -45.000410
v -199.619424 -96.913755 -45.000410
v -200.000000 -95.000529 -45.000410
v -199.619424 -95.000529 -46.913624
v -198.535669 -95.000529 -48.535633
v -196.913719 -95.000529 -49.619341
v -195.000482 -95.000529 -49.999905
v -195.000482 -96.913755 -49.619341
v -195.000482 -98.535705 -48.535633
v -195.000482 -99.619436 -46.913624
v -195.000482 -100.000024 -45.000410
v 199.619424 -96.913755 -45.000410
v 198.535669 -98.535705 -45.000410
v 196.913719 -99.619436 -45.000410
v 195.000482 -100.000024 -45.000410
v 195.000482 -99.619436 -46.913624
v 195.000482 -98.535705 -48.535633
v 195.000482 -96.913755 -49.619341
v 195.000482 -95.000529 -49.999905
v 196.913719 -95.000529 -49.619341
v 198.535669 -95.000529 -48.535633
v 199.619424 -95.000529 -46.913624
v 200.000000 -95.000529 -45.000410
v -199.362361 -96.726191 46.726227
v -198.377514 -98.377526 46.465659
v -196.726167 -99.362385 46.726227
v -196.465600 -98.377526 48.377562
v -196.726167 -96.726191 49.362421
v -198.377514 -96.465635 48.377562
v -197.885954 -97.885978 47.886014
v 196.726167 -99.362385 46.726227
v 198.377514 -98.377526 46.465659
v 199.362361 -96.726191 46.726227
v 198.377514 -96.465635 48.377562
v 196.726167 -96.726191 49.362421
v 196.465600 -98.377526 48.377562
v 197.885954 -97.885978 47.886014
v -196.726167 99.362302 46.726227
v -198.377514 98.377442 46.465659
v -199.362361 96.726108 46.726227
v -198.377514 96.465588 48.377562
v -196.726167 96.726108 49.362421
v -196.465600 98.377442 48.377562
v -197.885954 97.885895 47.886014
v 199.362361 96.726108 46.726227
v 198.377514 98.377442 46.465659
v 196.726167 99.362302 46.726227
v 196.465600 98.377442 48.377562
v 196.726167 96.726108 49.362421
v 198.377514 96.465588 48.377562
v 197.885954 97.885895 47.886014
v -196.726167 96.726108 -49.362278
v -198.377514 96.465588 -48.377419
v -199.362361 96.726108 -46.726084
v -198.377514 98.377442 -46.465540
v -196.726167 99.362302 -46.726084
v -196.465600 98.377442 -48.377419
v -197.885954 97.885895 -47.885895
v 199.362361 96.726108 -46.726084
v 198.377514 96.465588 -48.377419
v 196.726167 96.726108 -49.362278
v 196.465600 98.377442 -48.377419
v 196.726167 99.362302 -46.726084
v 198.377514 98.377442 -46.465540
v 197.885954 97.885895 -47.885895
v -196.726167 -99.362385 -46.726084
v -198.377514 -98.377526 -46.465540
v -199.362361 -96.726191 -46.726084
v -198.377514 -96.465635 -48.377419
v -196.726167 -96.726191 -49.362278
v -196.465600 -98.377526 -48.377419
v -197.885954 -97.885978 -47.885895
v 199.362361 -96.726191 -46.726084
v 198.377514 -98.377526 -46.465540
v 196.726167 -99.362385 -46.726084
v 196.465600 -98.377526 -48.377419
v 196.726167 -96.726191 -49.362278
v 198.377514 -96.465635 -48.377419
v 197.885954 -97.885978 -47.885895
vt 0.249186 0.759500
vt 0.251238 0.759500
vt 0.251238 0.987349
vt 0.249186 0.987349
vt 0.251473 0.755130
vt 0.249379 0.755791
vt 0.253658 0.759500
vt 0.253658 0.987349
vt 0.249379 0.991055
vt 0.251473 0.991713
vt 0.247810 0.759500
vt 0.247810 0.987349
vt 0.253658 0.754656
vt 0.248136 0.755130
vt 0.251805 0.750950
vt 0.250007 0.752193
vt 0.494162 0.759500
vt 0.494162 0.987349
vt 0.253658 0.992190
vt 0.248136 0.991713
vt 0.251805 0.995896
vt 0.250007 0.994652
vt 0.494162 0.754656
vt 0.253658 0.750549
vt 0.249379 0.750950
vt 0.251028 0.748194
vt 0.496582 0.759500
vt 0.496582 0.987349
vt 0.494162 0.992190
vt 0.253658 0.996294
vt 0.249379 0.995896
vt 0.251473 0.998388
vt 0.494162 0.750549
vt 0.496347 0.755130
vt 0.253658 0.747805
vt 0.498634 0.759500
vt 0.498634 0.987349
vt 0.496347 0.991713
vt 0.494162 0.996294
vt 0.253658 0.999040
vt 0.494162 0.747805
vt 0.496015 0.750950
vt 0.498435 0.755791
vt 0.251237 0.747324
vt 0.253658 0.746843
vt 0.500010 0.759500
vt 0.500010 0.987349
vt 0.498435 0.991055
vt 0.496015 0.995896
vt 0.494162 0.999040
vt 0.253658 1.000000
vt 0.251238 0.999040
vt 0.494162 0.746843
vt 0.496790 0.748194
vt 0.497813 0.752193
vt 0.499684 0.755130
vt 0.499685 0.991713
vt 0.497813 0.994652
vt 0.496347 0.998388
vt 0.494162 1.000000
vt 0.496582 0.747324
vt 0.498435 0.750950
vt 0.498435 0.995896
vt 0.496582 0.999040
vt 0.253652 0.487345
vt 0.251238 0.487345
vt 0.251238 0.259504
vt 0.253653 0.259504
vt 0.253652 0.492197
vt 0.251480 0.491714
vt 0.249186 0.487345
vt 0.249186 0.259504
vt 0.253653 0.254664
vt 0.251480 0.255134
vt 0.494168 0.259504
vt 0.494168 0.487345
vt 0.494168 0.492197
vt 0.253652 0.496302
vt 0.251805 0.495903
vt 0.249379 0.491063
vt 0.247810 0.487345
vt 0.247810 0.259504
vt 0.249379 0.255786
vt 0.494168 0.254664
vt 0.251805 0.250958
vt 0.253653 0.250547
vt 0.496582 0.487345
vt 0.496582 0.259504
vt 0.496341 0.491715
vt 0.494168 0.496302
vt 0.253652 0.499042
vt 0.251031 0.498653
vt 0.250007 0.494648
vt 0.248136 0.491714
vt 0.248136 0.255134
vt 0.250007 0.252201
vt 0.496341 0.255134
vt 0.494168 0.250547
vt 0.251480 0.248459
vt 0.253653 0.247807
vt 0.498634 0.487345
vt 0.498634 0.259504
vt 0.498441 0.491063
vt 0.496015 0.495903
vt 0.494168 0.499042
vt 0.253655 0.500008
vt 0.251237 0.499525
vt 0.249379 0.495903
vt 0.249379 0.250958
vt 0.496015 0.250958
vt 0.498441 0.255786
vt 0.494168 0.247807
vt 0.251238 0.247324
vt 0.253652 0.246841
vt 0.500011 0.487345
vt 0.500011 0.259504
vt 0.499685 0.491714
vt 0.497814 0.494648
vt 0.496787 0.498653
vt 0.494165 0.500008
vt 0.496341 0.248459
vt 0.497814 0.252201
vt 0.499685 0.255134
vt 0.494168 0.246841
vt 0.498441 0.495903
vt 0.496582 0.499525
vt 0.496582 0.247324
vt 0.498441 0.250958
vt 0.239541 0.746841
vt 0.239541 0.748051
vt 0.011691 0.748051
vt 0.011691 0.746841
vt 0.244384 0.746841
vt 0.243911 0.747931
vt 0.006851 0.746841
vt 0.007328 0.747931
vt 0.011691 0.500009
vt 0.239541 0.500009
vt 0.244384 0.500009
vt 0.248492 0.746841
vt 0.248090 0.747767
vt 0.006851 0.500009
vt 0.003145 0.747768
vt 0.002746 0.746841
vt 0.239541 0.498796
vt 0.011691 0.498796
vt 0.243911 0.498917
vt 0.248492 0.500009
vt 0.002746 0.500009
vt 0.007327 0.498917
vt 0.000652 0.747931
vt 0.000000 0.746841
vt 0.248090 0.499080
vt 0.000000 0.500009
vt 0.003145 0.499080
vt 0.000652 0.498917
vt 0.508280 0.748051
vt 0.508280 0.746841
vt 0.736120 0.746841
vt 0.736120 0.748051
vt 0.503427 0.746841
vt 0.503910 0.747931
vt 0.508280 0.500009
vt 0.736120 0.500009
vt 0.740960 0.746841
vt 0.740490 0.747931
vt 0.503427 0.500009
vt 0.499721 0.747768
vt 0.499322 0.746841
vt 0.508280 0.498796
vt 0.736120 0.498796
vt 0.740961 0.500009
vt 0.745077 0.746841
vt 0.744666 0.747768
vt 0.499322 0.500009
vt 0.503910 0.498917
vt 0.740490 0.498917
vt 0.745077 0.500009
vt 0.747817 0.746841
vt 0.747165 0.747931
vt 0.499721 0.499080
vt 0.744667 0.499080
vt 0.747817 0.500009
vt 0.747165 0.498917
vt 0.494168 0.000001
vt 0.496583 0.000001
vt 0.253653 0.000000
vt 0.251239 0.000000
vn -0.000967 -0.999991 0.004137
vn -0.382265 -0.924047 0.003180
vn -0.382265 -0.924047 -0.003181
vn -0.000967 -0.999991 -0.004137
vn -0.707043 -0.707164 0.002945
vn -0.707043 -0.707164 -0.002945
vn -0.923988 -0.382408 0.003200
vn -0.923988 -0.382408 -0.003200
vn -0.999989 -0.001976 0.004134
vn -0.999989 -0.001976 -0.004134
vn -0.000968 -0.001980 0.999998
vn -0.000692 -0.382532 0.923942
vn 0.000692 -0.382532 0.923942
vn 0.000968 -0.001980 0.999998
vn -0.000667 -0.707013 0.707201
vn 0.000667 -0.707013 0.707201
vn -0.000721 -0.923848 0.382760
vn 0.000721 -0.923848 0.382760
vn 0.000967 -0.999991 0.004137
vn -0.923865 -0.001517 0.382715
vn -0.923865 0.001517 0.382715
vn -0.999989 0.001976 0.004134
vn -0.706957 -0.001406 0.707255
vn -0.706957 0.001406 0.707255
vn -0.382320 -0.001499 0.924029
vn -0.382320 0.001499 0.924029
vn -0.000968 0.001980 0.999998
vn 0.999989 -0.001976 0.004134
vn 0.923988 -0.382408 0.003200
vn 0.923988 -0.382408 -0.003200
vn 0.999989 -0.001976 -0.004134
vn 0.707043 -0.707164 0.002945
vn 0.707043 -0.707164 -0.002945
vn 0.382265 -0.924047 0.003181
vn 0.382265 -0.924047 -0.003180
vn 0.000967 -0.999991 -0.004137
vn 0.382320 -0.001499 0.924029
vn 0.382320 0.001499 0.924029
vn 0.000968 0.001980 0.999998
vn 0.706957 -0.001406 0.707255
vn 0.706957 0.001406 0.707255
vn 0.923865 -0.001517 0.382715
vn 0.923865 0.001517 0.382715
vn 0.999989 0.001976 0.004134
vn -0.923989 0.382406 0.003200
vn -0.923989 0.382406 -0.003200
vn -0.999989 0.001976 -0.004134
vn -0.707051 0.707157 0.002946
vn -0.707051 0.707157 -0.002946
vn -0.382265 0.924047 0.003181
vn -0.382265 0.924047 -0.003181
vn -0.000967 0.999991 0.004137
vn -0.000967 0.999991 -0.004137
vn -0.000722 0.923848 0.382760
vn 0.000722 0.923848 0.382760
vn 0.000967 0.999991 0.004137
vn -0.000667 0.707005 0.707208
vn 0.000667 0.707005 0.707208
vn -0.000692 0.382531 0.923942
vn 0.000692 0.382531 0.923943
vn 0.382265 0.924047 0.003181
vn 0.382265 0.924047 -0.003181
vn 0.000967 0.999991 -0.004137
vn 0.707051 0.707157 0.002946
vn 0.707051 0.707157 -0.002946
vn 0.923989 0.382406 0.003200
vn 0.923989 0.382406 -0.003200
vn 0.999989 0.001976 -0.004134
vn -0.923867 0.001517 -0.382710
vn -0.923867 -0.001517 -0.382710
vn -0.706957 0.001406 -0.707255
vn -0.706957 -0.001406 -0.707255
vn -0.382304 0.001499 -0.924035
vn -0.382304 -0.001499 -0.924035
vn -0.000968 0.001980 -0.999998
vn -0.000968 -0.001980 -0.999998
vn -0.000692 0.382515 -0.923949
vn 0.000692 0.382515 -0.923949
vn 0.000968 0.001980 -0.999998
vn -0.000667 0.707005 -0.707208
vn 0.000667 0.707005 -0.707208
vn -0.000722 0.923849 -0.382755
vn 0.000722 0.923849 -0.382755
vn 0.382304 0.001499 -0.924035
vn 0.382304 -0.001499 -0.924035
vn 0.000968 -0.001980 -0.999998
vn 0.706957 0.001406 -0.707255
vn 0.706957 -0.001406 -0.707255
vn 0.923867 0.001517 -0.382710
vn 0.923867 -0.001517 -0.382710
vn -0.000721 -0.923849 -0.382755
vn 0.000721 -0.923849 -0.382755
vn -0.000667 -0.707013 -0.707201
vn 0.000667 -0.707013 -0.707201
vn -0.000692 -0.382517 -0.923948
vn 0.000692 -0.382517 -0.923948
vn -0.875195 -0.340353 0.343791
vn -0.673308 -0.679946 0.290395
vn -0.334688 -0.880608 0.335431
vn -0.311108 -0.662042 0.681845
vn -0.325855 -0.332125 0.885162
vn -0.657309 -0.314121 0.685035
vn -0.587944 -0.590467 0.552874
vn 0.334688 -0.880606 0.335435
vn 0.673308 -0.679946 0.290397
vn 0.875196 -0.340352 0.343791
vn 0.657308 -0.314121 0.685035
vn 0.325856 -0.332126 0.885161
vn 0.311108 -0.662041 0.681845
vn 0.587944 -0.590467 0.552875
vn -0.334696 0.880599 0.335444
vn -0.673309 0.679942 0.290402
vn -0.875196 0.340352 0.343790
vn -0.657306 0.314122 0.685037
vn -0.325856 0.332124 0.885162
vn -0.311115 0.662037 0.681847
vn -0.587943 0.590470 0.552873
vn 0.875196 0.340353 0.343791
vn 0.673309 0.679942 0.290403
vn 0.334696 0.880601 0.335442
vn 0.311114 0.662037 0.681847
vn 0.325856 0.332123 0.885162
vn 0.657306 0.314122 0.685037
vn 0.587943 0.590470 0.552873
vn -0.325850 0.332116 -0.885167
vn -0.657310 0.314119 -0.685034
vn -0.875196 0.340355 -0.343789
vn -0.673309 0.679941 -0.290405
vn -0.334697 0.880599 -0.335445
vn -0.311115 0.662040 -0.681844
vn -0.587941 0.590468 -0.552877
vn 0.875196 0.340355 -0.343789
vn 0.657310 0.314120 -0.685034
vn 0.325850 0.332116 -0.885167
vn 0.311115 0.662040 -0.681844
vn 0.334697 0.880599 -0.335446
vn 0.673309 0.679941 -0.290404
vn 0.587941 0.590468 -0.552877
vn -0.334689 -0.880605 -0.335436
vn -0.673308 -0.679945 -0.290399
vn -0.875195 -0.340355 -0.343790
vn -0.657313 -0.314118 -0.685032
vn -0.325850 -0.332118 -0.885167
vn -0.311109 -0.662045 -0.681842
vn -0.587943 -0.590464 -0.552879
vn 0.875196 -0.340355 -0.343790
vn 0.673308 -0.679946 -0.290397
vn 0.334689 -0.880606 -0.335435
vn 0.311109 -0.662045 -0.681842
vn 0.325850 -0.332118 -0.885167
vn 0.657313 -0.314118 -0.685032
vn 0.587943 -0.590465 -0.552878
s 1
g InnerWall
usemtl lambert12SG
f 4/129/1 3/130/2 73/131/3 84/132/4
f 3/11/2 2/1/5 74/4/6 73/12/3
f 2/1/5 1/2/7 75/3/8 74/4/6
f 1/2/7 12/7/9 76/8/10 75/3/8
f 8/45/11 7/44/12 21/107/13 20/106/14
f 7/44/12 6/140/15 22/148/16 21/107/13
f 6/140/15 5/133/17 23/139/18 22/148/16
f 5/133/17 4/129/1 24/138/19 23/139/18
f 12/7/9 11/13/20 29/23/21 28/17/22
f 11/13/20 10/24/23 30/33/24 29/23/21
f 10/24/23 9/35/25 31/41/26 30/33/24
f 9/35/25 8/45/11 32/53/27 31/41/26
f 16/65/28 15/66/29 85/67/30 96/68/31
f 15/66/29 14/71/32 86/72/33 85/67/30
f 14/71/32 13/81/34 87/82/35 86/72/33
f 13/145/34 24/138/19 88/137/36 87/146/35
f 20/106/14 19/91/37 45/105/38 44/120/39
f 19/91/37 18/78/40 46/90/41 45/105/38
f 18/78/40 17/69/42 47/77/43 46/90/41
f 17/69/42 16/65/28 48/76/44 47/77/43
f 28/17/22 27/27/45 53/28/46 52/18/47
f 27/27/45 26/36/48 54/37/49 53/28/46
f 26/36/48 25/46/50 55/47/51 54/37/49
f 25/157/50 36/158/52 56/159/53 55/160/51
f 36/158/52 35/161/54 41/167/55 40/163/56
f 35/161/54 34/169/57 42/175/58 41/167/55
f 34/169/57 33/61/59 43/126/60 42/175/58
f 33/61/59 32/53/27 44/120/39 43/126/60
f 40/163/56 39/170/61 69/171/62 68/164/63
f 39/115/61 38/101/64 70/102/65 69/116/62
f 38/101/64 37/87/66 71/88/67 70/102/65
f 37/87/66 48/76/44 72/75/68 71/88/67
f 52/18/47 51/29/69 77/19/70 76/8/10
f 51/29/69 50/39/71 78/30/72 77/19/70
f 50/39/71 49/50/73 79/40/74 78/30/72
f 49/50/73 60/60/75 80/51/76 79/40/74
f 60/185/75 59/186/77 65/127/78 64/124/79
f 59/179/77 58/173/80 66/178/81 65/183/78
f 58/173/80 57/165/82 67/172/83 66/178/81
f 57/165/82 56/159/53 68/164/63 67/172/83
f 64/124/79 63/112/84 93/100/85 92/114/86
f 63/112/84 62/98/87 94/86/88 93/100/85
f 62/98/87 61/84/89 95/73/90 94/86/88
f 61/84/89 72/75/68 96/68/31 95/73/90
f 84/132/4 83/135/91 89/142/92 88/137/36
f 83/135/91 82/144/93 90/149/94 89/142/92
f 82/144/93 81/152/95 91/154/96 90/149/94
f 81/188/95 80/187/76 92/114/86 91/113/96
f 8/45/11 20/106/14 44/120/39 32/53/27
f 36/158/52 40/163/56 68/164/63 56/159/53
f 60/185/75 64/124/79 92/114/86 80/187/76
f 84/132/4 88/137/36 24/138/19 4/129/1
f 16/65/28 96/68/31 72/75/68 48/76/44
f 76/8/10 12/7/9 28/17/22 52/18/47
f 11/13/20 12/7/9 1/2/7 97/5/97
f 97/5/97 1/2/7 2/1/5 98/6/98
f 98/6/98 2/1/5 3/11/2 99/14/99
f 3/130/2 4/129/1 5/133/17 99/134/99
f 99/134/99 5/133/17 6/140/15 100/141/100
f 100/141/100 6/140/15 7/44/12 101/26/101
f 7/44/12 8/45/11 9/35/25 101/26/101
f 101/26/101 9/35/25 10/24/23 102/15/102
f 102/15/102 10/24/23 11/13/20 97/5/97
f 102/15/102 97/5/97 98/6/98 103/16/103
f 98/6/98 99/14/99 100/25/100 103/16/103
f 100/25/100 101/26/101 102/15/102 103/16/103
f 23/139/18 24/138/19 13/145/34 104/147/104
f 104/94/104 13/81/34 14/71/32 105/80/105
f 105/80/105 14/71/32 15/66/29 106/70/106
f 15/66/29 16/65/28 17/69/42 106/70/106
f 106/70/106 17/69/42 18/78/40 107/79/107
f 107/79/107 18/78/40 19/91/37 108/92/108
f 19/91/37 20/106/14 21/107/13 108/92/108
f 108/92/108 21/107/13 22/148/16 109/153/109
f 109/153/109 22/148/16 23/139/18 104/147/104
f 109/108/109 104/94/104 105/80/105 110/93/110
f 105/80/105 106/70/106 107/79/107 110/93/110
f 107/79/107 108/92/108 109/108/109 110/93/110
f 35/161/54 36/158/52 25/157/50 111/162/111
f 111/56/111 25/46/50 26/36/48 112/43/112
f 112/43/112 26/36/48 27/27/45 113/34/113
f 27/27/45 28/17/22 29/23/21 113/34/113
f 113/34/113 29/23/21 30/33/24 114/42/114
f 114/42/114 30/33/24 31/41/26 115/54/115
f 31/41/26 32/53/27 33/61/59 115/54/115
f 115/54/115 33/61/59 34/169/57 116/168/116
f 116/168/116 34/169/57 35/161/54 111/162/111
f 116/62/116 111/56/111 112/43/112 117/55/117
f 112/43/112 113/34/113 114/42/114 117/55/117
f 114/42/114 115/54/115 116/62/116 117/55/117
f 47/77/43 48/76/44 37/87/66 118/89/118
f 118/89/118 37/87/66 38/101/64 119/103/119
f 119/103/119 38/101/64 39/115/61 120/117/120
f 39/170/61 40/163/56 41/167/55 120/176/120
f 120/176/120 41/167/55 42/175/58 121/181/121
f 121/181/121 42/175/58 43/126/60 122/119/122
f 43/126/60 44/120/39 45/105/38 122/119/122
f 122/119/122 45/105/38 46/90/41 123/104/123
f 123/104/123 46/90/41 47/77/43 118/89/118
f 123/104/123 118/89/118 119/103/119 124/118/124
f 119/103/119 120/117/120 121/125/121 124/118/124
f 121/125/121 122/119/122 123/104/123 124/118/124
f 59/64/77 60/60/75 49/50/73 125/59/125
f 125/59/125 49/50/73 50/39/71 126/49/126
f 126/49/126 50/39/71 51/29/69 127/38/127
f 51/29/69 52/18/47 53/28/46 127/38/127
f 127/38/127 53/28/46 54/37/49 128/48/128
f 128/48/128 54/37/49 55/47/51 129/57/129
f 55/160/51 56/159/53 57/165/82 129/166/129
f 129/166/129 57/165/82 58/173/80 130/174/130
f 130/174/130 58/173/80 59/179/77 125/180/125
f 130/63/130 125/59/125 126/49/126 131/58/131
f 126/49/126 127/38/127 128/48/128 131/58/131
f 128/48/128 129/57/129 130/63/130 131/58/131
f 71/88/67 72/75/68 61/84/89 132/97/132
f 132/97/132 61/84/89 62/98/87 133/110/133
f 133/110/133 62/98/87 63/112/84 134/121/134
f 63/112/84 64/124/79 65/127/78 134/121/134
f 134/184/134 65/183/78 66/178/81 135/182/135
f 135/182/135 66/178/81 67/172/83 136/177/136
f 67/172/83 68/164/63 69/171/62 136/177/136
f 136/123/136 69/116/62 70/102/65 137/111/137
f 137/111/137 70/102/65 71/88/67 132/97/132
f 137/111/137 132/97/132 133/110/133 138/122/138
f 133/110/133 134/121/134 135/128/135 138/122/138
f 135/128/135 136/123/136 137/111/137 138/122/138
f 83/135/91 84/132/4 73/131/3 139/136/139
f 139/20/139 73/12/3 74/4/6 140/9/140
f 140/9/140 74/4/6 75/3/8 141/10/141
f 75/3/8 76/8/10 77/19/70 141/10/141
f 141/10/141 77/19/70 78/30/72 142/21/142
f 142/21/142 78/30/72 79/40/74 143/32/143
f 79/40/74 80/51/76 81/52/95 143/32/143
f 143/151/143 81/152/95 82/144/93 144/143/144
f 144/143/144 82/144/93 83/135/91 139/136/139
f 144/31/144 139/20/139 140/9/140 145/22/145
f 140/9/140 141/10/141 142/21/142 145/22/145
f 142/21/142 143/32/143 144/31/144 145/22/145
f 95/73/90 96/68/31 85/67/30 146/74/146
f 146/74/146 85/67/30 86/72/33 147/83/147
f 147/83/147 86/72/33 87/82/35 148/95/148
f 87/146/35 88/137/36 89/142/92 148/150/148
f 148/150/148 89/142/92 90/149/94 149/155/149
f 149/155/149 90/149/94 91/154/96 150/156/150
f 91/113/96 92/114/86 93/100/85 150/99/150
f 150/99/150 93/100/85 94/86/88 151/85/151
f 151/85/151 94/86/88 95/73/90 146/74/146
f 151/85/151 146/74/146 147/83/147 152/96/152
f 147/83/147 148/95/148 149/109/149 152/96/152
f 149/109/149 150/99/150 151/85/151 152/96/152
