# This file uses centimeters as units for non-parametric coordinates.

mtllib LY_LBLDG.mtl
g default
v -99.238867 -121.769946 90.001106
v -97.071356 -126.095169 90.001106
v -93.827450 -128.985183 90.001106
v -90.000999 -130.000000 90.001106
v -90.000999 -128.985183 93.827534
v -90.000999 -126.095169 97.071362
v -90.000999 -121.769946 99.238968
v -90.000999 -116.668026 100.000095
v -93.827450 -116.668026 99.238968
v -97.071356 -116.668026 97.071362
v -99.238867 -116.668026 93.827534
v -100.000000 -116.668026 90.001106
v 93.827450 -128.985183 90.001106
v 97.071356 -126.095169 90.001106
v 99.238867 -121.769946 90.001106
v 100.000000 -116.668026 90.001106
v 99.238867 -116.668026 93.827534
v 97.071356 -116.668026 97.071362
v 93.827450 -116.668026 99.238968
v 90.000999 -116.668026 100.000095
v 90.000999 -121.769946 99.238968
v 90.000999 -126.095169 97.071362
v 90.000999 -128.985183 93.827534
v 90.000999 -130.000000 90.001106
v -93.827450 268.985171 90.001106
v -97.071356 266.095157 90.001106
v -99.238867 261.769946 90.001106
v -100.000000 256.668015 90.001106
v -99.238867 256.668015 93.827534
v -97.071356 256.668015 97.071362
v -93.827450 256.668015 99.238968
v -90.000999 256.668015 100.000095
v -90.000999 261.769946 99.238968
v -90.000999 266.095157 97.071362
v -90.000999 268.985171 93.827534
v -90.000999 270.000000 90.001106
v 99.238867 261.769946 90.001106
v 97.071356 266.095157 90.001106
v 93.827450 268.985171 90.001106
v 90.000999 270.000000 90.001106
v 90.000999 268.985171 93.827534
v 90.000999 266.095157 97.071362
v 90.000999 261.769946 99.238968
v 90.000999 256.668015 100.000095
v 93.827450 256.668015 99.238968
v 97.071356 256.668015 97.071362
v 99.238867 256.668015 93.827534
v 100.000000 256.668015 90.001106
v -93.827450 256.668015 -99.238777
v -97.071356 256.668015 -97.071457
v -99.238867 256.668015 -93.827438
v -100.000000 256.668015 -90.001011
v -99.238867 261.769946 -90.001011
v -97.071356 266.095157 -90.001011
v -93.827450 268.985171 -90.001011
v -90.000999 270.000000 -90.001011
v -90.000999 268.985171 -93.827438
v -90.000999 266.095157 -97.071457
v -90.000999 261.769946 -99.238777
v -90.000999 256.668015 -100.000000
v 99.238867 256.668015 -93.827438
v 97.071356 256.668015 -97.071457
v 93.827450 256.668015 -99.238777
v 90.000999 256.668015 -100.000000
v 90.000999 261.769946 -99.238777
v 90.000999 266.095157 -97.071457
v 90.000999 268.985171 -93.827438
v 90.000999 270.000000 -90.001011
v 93.827450 268.985171 -90.001011
v 97.071356 266.095157 -90.001011
v 99.238867 261.769946 -90.001011
v 100.000000 256.668015 -90.001011
v -93.827450 -128.985183 -90.001011
v -97.071356 -126.095169 -90.001011
v -99.238867 -121.769946 -90.001011
v -100.000000 -116.668026 -90.001011
v -99.238867 -116.668026 -93.827438
v -97.071356 -116.668026 -97.071457
v -93.827450 -116.668026 -99.238777
v -90.000999 -116.668026 -100.000000
v -90.000999 -121.769946 -99.238777
v -90.000999 -126.095169 -97.071457
v -90.000999 -128.985183 -93.827438
v -90.000999 -130.000000 -90.001011
v 99.238867 -121.769946 -90.001011
v 97.071356 -126.095169 -90.001011
v 93.827450 -128.985183 -90.001011
v 90.000999 -130.000000 -90.001011
v 90.000999 -128.985183 -93.827438
v 90.000999 -126.095169 -97.071457
v 90.000999 -121.769946 -99.238777
v 90.000999 -116.668026 -100.000000
v 93.827450 -116.668026 -99.238777
v 97.071356 -116.668026 -97.071457
v 99.238867 -116.668026 -93.827438
v 100.000000 -116.668026 -90.001011
v -98.724759 -121.269791 93.452358
v -96.755010 -125.673358 92.931366
v -93.452322 -128.299682 93.452358
v -92.931211 -125.673358 96.755028
v -93.452322 -121.269791 98.724747
v -96.755010 -120.574968 96.755028
v -95.771909 -124.362557 95.771980
v 93.452322 -128.299682 93.452358
v 96.755010 -125.673358 92.931366
v 98.724759 -121.269791 93.452358
v 96.755010 -120.574968 96.755028
v 93.452322 -121.269791 98.724747
v 92.931211 -125.673358 96.755028
v 95.771909 -124.362557 95.771980
v -93.452322 268.299682 93.452358
v -96.755010 265.673358 92.931366
v -98.724759 261.269779 93.452358
v -96.755010 260.574980 96.755028
v -93.452322 261.269779 98.724747
v -92.931211 265.673358 96.755028
v -95.771909 264.362557 95.771980
v 98.724759 261.269779 93.452358
v 96.755010 265.673358 92.931366
v 93.452322 268.299682 93.452358
v 92.931211 265.673358 96.755028
v 93.452322 261.269779 98.724747
v 96.755010 260.574980 96.755028
v 95.771909 264.362557 95.771980
v -93.452322 261.269779 -98.724747
v -96.755010 260.574980 -96.755028
v -98.724759 261.269779 -93.452168
v -96.755010 265.673358 -92.931175
v -93.452322 268.299682 -93.452168
v -92.931211 265.673358 -96.755028
v -95.771909 264.362557 -95.771885
v 98.724759 261.269779 -93.452168
v 96.755010 260.574980 -96.755028
v 93.452322 261.269779 -98.724747
v 92.931211 265.673358 -96.755028
v 93.452322 268.299682 -93.452168
v 96.755010 265.673358 -92.931175
v 95.771909 264.362557 -95.771885
v -93.452322 -128.299682 -93.452168
v -96.755010 -125.673358 -92.931175
v -98.724759 -121.269791 -93.452168
v -96.755010 -120.574968 -96.755028
v -93.452322 -121.269791 -98.724747
v -92.931211 -125.673358 -96.755028
v -95.771909 -124.362557 -95.771885
v 98.724759 -121.269791 -93.452168
v 96.755010 -125.673358 -92.931175
v 93.452322 -128.299682 -93.452168
v 92.931211 -125.673358 -96.755028
v 93.452322 -121.269791 -98.724747
v 96.755010 -120.574968 -96.755028
v 95.771909 -124.362557 -95.771885
vt 0.387499 0.987501
vt 0.387499 0.008332
vt 0.612501 0.987501
vt 0.637499 0.008332
vt 0.387499 0.241668
vt 0.612501 0.241667
vt 0.637499 0.241668
vt 0.137499 0.008332
vt 0.387499 0.487501
vt 0.612501 0.487501
vt 0.862501 0.241668
vt 0.862501 0.008332
vt 0.612501 0.762499
vt 0.387499 0.741668
vt 0.612501 0.741668
vt 0.612501 0.008332
vt 0.387499 0.262499
vt 0.612501 0.262499
vt 0.387499 0.508332
vt 0.612501 0.508332
vt 0.387499 0.762499
vt 0.362501 0.008332
vt 0.362501 0.241668
vt 0.137499 0.241668
vt 0.364663 0.004461
vt 0.375000 0.992149
vt 0.367149 -0.000000
vt 0.380962 0.989934
vt 0.385067 0.994036
vt 0.382851 -0.000000
vt 0.382851 1.000000
vt 0.385337 0.004462
vt 0.381221 0.008266
vt 0.375000 0.008232
vt 0.368779 0.008267
vt 0.619036 0.989933
vt 0.632851 -0.000000
vt 0.625000 0.992149
vt 0.635337 0.004462
vt 0.631221 0.008266
vt 0.624999 0.008232
vt 0.618779 0.008267
vt 0.614663 0.004462
vt 0.617149 1.000000
vt 0.617149 -0.000000
vt 0.614934 0.994038
vt 0.380985 0.260068
vt 0.367149 0.250000
vt 0.375000 0.257851
vt 0.364664 0.245539
vt 0.368801 0.241735
vt 0.375044 0.241771
vt 0.381279 0.241737
vt 0.387434 0.245850
vt 0.387389 0.250678
vt 0.387406 0.256310
vt 0.635336 0.245539
vt 0.625000 0.257851
vt 0.632851 0.250000
vt 0.619015 0.260068
vt 0.612595 0.256311
vt 0.612611 0.250677
vt 0.612566 0.245850
vt 0.618722 0.241737
vt 0.624957 0.241771
vt 0.631198 0.241735
vt 0.381256 0.506951
vt 0.125000 0.244429
vt 0.375000 0.505571
vt 0.131220 0.243045
vt 0.135337 0.245547
vt 0.375000 0.492149
vt 0.132851 0.250000
vt 0.380985 0.489931
vt 0.387405 0.493679
vt 0.387388 0.499305
vt 0.387434 0.504133
vt 0.868779 0.243045
vt 0.625000 0.505571
vt 0.875000 0.244429
vt 0.618743 0.506951
vt 0.612567 0.504133
vt 0.612612 0.499304
vt 0.612595 0.493679
vt 0.619015 0.489931
vt 0.867149 0.250000
vt 0.625000 0.492149
vt 0.864663 0.245547
vt 0.380985 0.760069
vt 0.132851 -0.000000
vt 0.375000 0.757851
vt 0.135337 0.004453
vt 0.131221 0.006955
vt 0.375000 0.744429
vt 0.125000 0.005571
vt 0.381257 0.743049
vt 0.387433 0.745867
vt 0.387388 0.750696
vt 0.387405 0.756321
vt 0.864663 0.004453
vt 0.625000 0.757851
vt 0.867149 -0.000000
vt 0.619015 0.760069
vt 0.612595 0.756321
vt 0.612612 0.750695
vt 0.612566 0.745867
vt 0.618744 0.743049
vt 0.875000 0.005571
vt 0.625000 0.744429
vt 0.868780 0.006955
vt 0.369428 0.004730
vt 0.375000 0.995995
vt 0.370995 -0.000000
vt 0.380155 0.994857
vt 0.379005 -0.000000
vt 0.379005 1.000000
vt 0.380568 0.004734
vt 0.375009 0.004809
vt 0.375000 1.000000
vt 0.375000 0.000000
vt 0.619857 0.994845
vt 0.629005 -0.000000
vt 0.625000 0.995995
vt 0.630568 0.004734
vt 0.625009 0.004809
vt 0.619428 0.004730
vt 0.620995 1.000000
vt 0.620995 -0.000000
vt 0.625000 0.000000
vt 0.625000 1.000000
vt 0.381276 0.255241
vt 0.370995 0.250000
vt 0.375000 0.254005
vt 0.369459 0.245268
vt 0.375152 0.245201
vt 0.381749 0.245346
vt 0.382039 0.250066
vt 0.375000 0.250000
vt 0.630545 0.245271
vt 0.625000 0.254005
vt 0.629005 0.250000
vt 0.618729 0.255242
vt 0.617960 0.250076
vt 0.618250 0.245341
vt 0.624848 0.245200
vt 0.625000 0.250000
vt 0.381722 0.503892
vt 0.125000 0.246994
vt 0.375000 0.503006
vt 0.130573 0.245981
vt 0.375000 0.495995
vt 0.129005 0.250000
vt 0.381269 0.494716
vt 0.382032 0.499705
vt 0.125000 0.250000
vt 0.375000 0.500000
vt 0.869433 0.245976
vt 0.625000 0.503006
vt 0.875000 0.246994
vt 0.618281 0.503892
vt 0.617969 0.499730
vt 0.618726 0.494713
vt 0.870995 0.250000
vt 0.625000 0.495995
vt 0.625000 0.500000
vt 0.875000 0.250000
vt 0.381274 0.755287
vt 0.129005 -0.000000
vt 0.375000 0.754005
vt 0.130567 0.004024
vt 0.375000 0.746994
vt 0.125000 0.003006
vt 0.381719 0.746108
vt 0.382031 0.750270
vt 0.125000 0.000000
vt 0.375000 0.750000
vt 0.869427 0.004019
vt 0.625000 0.754005
vt 0.870995 -0.000000
vt 0.618731 0.755284
vt 0.617968 0.750295
vt 0.618278 0.746108
vt 0.875000 0.003006
vt 0.625000 0.746994
vt 0.625000 0.750000
vt 0.875000 0.000000
vn -0.005501 -0.999970 0.005501
vn -0.483214 -0.875493 0.004005
vn -0.483214 -0.875493 -0.004005
vn -0.005501 -0.999970 -0.005501
vn -0.800060 -0.599911 0.003303
vn -0.800060 -0.599911 -0.003303
vn -0.955074 -0.296349 0.003245
vn -0.955074 -0.296349 -0.003245
vn -0.999989 -0.002003 0.004130
vn -0.999989 -0.002003 -0.004130
vn -0.004130 -0.002003 0.999990
vn -0.003245 -0.296358 0.955072
vn 0.003245 -0.296358 0.955072
vn 0.004130 -0.002003 0.999990
vn -0.003303 -0.599913 0.800059
vn 0.003303 -0.599913 0.800059
vn -0.004005 -0.875491 0.483218
vn 0.004005 -0.875491 0.483218
vn 0.005501 -0.999970 0.005501
vn -0.923938 -0.001507 0.382540
vn -0.923938 0.001507 0.382540
vn -0.999989 0.002003 0.004130
vn -0.707107 -0.001397 0.707105
vn -0.707107 0.001397 0.707105
vn -0.382545 -0.001507 0.923936
vn -0.382545 0.001507 0.923936
vn -0.004130 0.002003 0.999990
vn 0.999989 -0.002003 0.004130
vn 0.955074 -0.296349 0.003245
vn 0.955074 -0.296349 -0.003245
vn 0.999989 -0.002003 -0.004130
vn 0.800060 -0.599911 0.003303
vn 0.800060 -0.599911 -0.003303
vn 0.483214 -0.875493 0.004005
vn 0.483214 -0.875493 -0.004005
vn 0.005501 -0.999970 -0.005501
vn 0.382545 -0.001507 0.923936
vn 0.382545 0.001507 0.923936
vn 0.004130 0.002003 0.999990
vn 0.707107 -0.001397 0.707105
vn 0.707107 0.001397 0.707105
vn 0.923938 -0.001507 0.382540
vn 0.923938 0.001507 0.382540
vn 0.999989 0.002003 0.004130
vn -0.955074 0.296349 0.003245
vn -0.955074 0.296349 -0.003245
vn -0.999989 0.002003 -0.004130
vn -0.800059 0.599912 0.003303
vn -0.800059 0.599912 -0.003303
vn -0.483215 0.875493 0.004005
vn -0.483215 0.875493 -0.004005
vn -0.005501 0.999970 0.005501
vn -0.005501 0.999970 -0.005501
vn -0.004005 0.875490 0.483220
vn 0.004005 0.875490 0.483220
vn 0.005501 0.999970 0.005501
vn -0.003303 0.599913 0.800058
vn 0.003303 0.599913 0.800058
vn -0.003245 0.296358 0.955072
vn 0.003245 0.296358 0.955072
vn 0.483215 0.875493 0.004005
vn 0.483215 0.875493 -0.004005
vn 0.005501 0.999970 -0.005501
vn 0.800059 0.599912 0.003303
vn 0.800059 0.599912 -0.003303
vn 0.955074 0.296349 0.003245
vn 0.955074 0.296349 -0.003245
vn 0.999989 0.002003 -0.004130
vn -0.923941 0.001507 -0.382531
vn -0.923941 -0.001507 -0.382531
vn -0.707101 0.001397 -0.707111
vn -0.707101 -0.001397 -0.707111
vn -0.382524 0.001507 -0.923944
vn -0.382524 -0.001507 -0.923944
vn -0.004130 0.002003 -0.999990
vn -0.004130 -0.002003 -0.999990
vn -0.003245 0.296340 -0.955077
vn 0.003245 0.296340 -0.955077
vn 0.004130 0.002003 -0.999990
vn -0.003303 0.599907 -0.800063
vn 0.003303 0.599907 -0.800063
vn -0.004005 0.875495 -0.483210
vn 0.004005 0.875495 -0.483210
vn 0.382524 0.001507 -0.923944
vn 0.382524 -0.001507 -0.923944
vn 0.004130 -0.002003 -0.999990
vn 0.707101 0.001397 -0.707111
vn 0.707101 -0.001397 -0.707111
vn 0.923941 0.001507 -0.382531
vn 0.923941 -0.001507 -0.382531
vn -0.004005 -0.875496 -0.483209
vn 0.004005 -0.875496 -0.483209
vn -0.003303 -0.599906 -0.800064
vn 0.003303 -0.599906 -0.800064
vn -0.003245 -0.296340 -0.955077
vn 0.003245 -0.296340 -0.955077
vn -0.902704 -0.257665 0.344577
vn -0.755345 -0.559927 0.340494
vn -0.417632 -0.806947 0.417637
vn -0.340485 -0.559926 0.755349
vn -0.344584 -0.257671 0.902700
vn -0.687133 -0.235990 0.687137
vn -0.623211 -0.472438 0.623226
vn 0.417632 -0.806947 0.417637
vn 0.755345 -0.559927 0.340494
vn 0.902704 -0.257665 0.344577
vn 0.687133 -0.235990 0.687137
vn 0.344584 -0.257671 0.902700
vn 0.340485 -0.559926 0.755349
vn 0.623210 -0.472438 0.623227
vn -0.417632 0.806948 0.417635
vn -0.755345 0.559927 0.340493
vn -0.902705 0.257665 0.344577
vn -0.687132 0.235990 0.687137
vn -0.344584 0.257671 0.902700
vn -0.340484 0.559927 0.755349
vn -0.623209 0.472439 0.623227
vn 0.902704 0.257665 0.344577
vn 0.755345 0.559927 0.340493
vn 0.417632 0.806948 0.417635
vn 0.340484 0.559927 0.755349
vn 0.344584 0.257671 0.902700
vn 0.687133 0.235990 0.687137
vn 0.623210 0.472438 0.623227
vn -0.344572 0.257661 -0.902708
vn -0.687139 0.235994 -0.687130
vn -0.902706 0.257667 -0.344572
vn -0.755345 0.559927 -0.340492
vn -0.417636 0.806949 -0.417629
vn -0.340492 0.559932 -0.755342
vn -0.623222 0.472447 -0.623208
vn 0.902706 0.257667 -0.344572
vn 0.687139 0.235993 -0.687130
vn 0.344572 0.257661 -0.902708
vn 0.340492 0.559932 -0.755342
vn 0.417636 0.806949 -0.417629
vn 0.755345 0.559927 -0.340493
vn 0.623222 0.472446 -0.623208
vn -0.417637 -0.806948 -0.417630
vn -0.755345 -0.559927 -0.340494
vn -0.902706 -0.257668 -0.344572
vn -0.687139 -0.235993 -0.687130
vn -0.344572 -0.257661 -0.902708
vn -0.340493 -0.559932 -0.755342
vn -0.623223 -0.472446 -0.623208
vn 0.902706 -0.257667 -0.344572
vn 0.755345 -0.559927 -0.340494
vn 0.417637 -0.806948 -0.417630
vn 0.340493 -0.559932 -0.755341
vn 0.344571 -0.257661 -0.902708
vn 0.687139 -0.235994 -0.687129
vn 0.623223 -0.472447 -0.623208
s 1
g BigBldg
usemtl lambert6SG
f 4/1/1 3/28/2 73/89/3 84/21/4
f 3/28/2 2/26/5 74/91/6 73/89/3
f 2/27/5 1/25/7 75/92/8 74/90/6
f 1/25/7 12/22/9 76/8/10 75/92/8
f 8/2/11 7/32/12 21/43/13 20/16/14
f 7/32/12 6/30/15 22/45/16 21/43/13
f 6/31/15 5/29/17 23/46/18 22/44/16
f 5/29/17 4/1/1 24/3/19 23/46/18
f 12/22/9 11/35/20 29/51/21 28/23/22
f 11/35/20 10/34/23 30/52/24 29/51/21
f 10/34/23 9/33/25 31/53/26 30/52/24
f 9/33/25 8/2/11 32/5/27 31/53/26
f 16/4/28 15/39/29 85/100/30 96/12/31
f 15/39/29 14/37/32 86/102/33 85/100/30
f 14/38/32 13/36/34 87/103/35 86/101/33
f 13/36/34 24/3/19 88/13/36 87/103/35
f 20/16/14 19/42/37 45/64/38 44/6/39
f 19/42/37 18/41/40 46/65/41 45/64/38
f 18/41/40 17/40/42 47/66/43 46/65/41
f 17/40/42 16/4/28 48/7/44 47/66/43
f 28/23/22 27/50/45 53/71/46 52/24/47
f 27/50/45 26/48/48 54/73/49 53/71/46
f 26/49/48 25/47/50 55/74/51 54/72/49
f 25/47/50 36/17/52 56/9/53 55/74/51
f 36/17/52 35/56/54 41/61/55 40/18/56
f 35/56/54 34/55/57 42/62/58 41/61/55
f 34/55/57 33/54/59 43/63/60 42/62/58
f 33/54/59 32/5/27 44/6/39 43/63/60
f 40/18/56 39/60/61 69/85/62 68/10/63
f 39/60/61 38/58/64 70/87/65 69/85/62
f 38/59/64 37/57/66 71/88/67 70/86/65
f 37/57/66 48/7/44 72/11/68 71/88/67
f 52/24/47 51/70/69 77/93/70 76/8/10
f 51/70/69 50/68/71 78/95/72 77/93/70
f 50/69/71 49/67/73 79/96/74 78/94/72
f 49/67/73 60/19/75 80/14/76 79/96/74
f 60/19/75 59/77/77 65/82/78 64/20/79
f 59/77/77 58/76/80 66/83/81 65/82/78
f 58/76/80 57/75/82 67/84/83 66/83/81
f 57/75/82 56/9/53 68/10/63 67/84/83
f 64/20/79 63/81/84 93/107/85 92/15/86
f 63/81/84 62/79/87 94/109/88 93/107/85
f 62/80/87 61/78/89 95/110/90 94/108/88
f 61/78/89 72/11/68 96/12/31 95/110/90
f 84/21/4 83/99/91 89/104/92 88/13/36
f 83/99/91 82/98/93 90/105/94 89/104/92
f 82/98/93 81/97/95 91/106/96 90/105/94
f 81/97/95 80/14/76 92/15/86 91/106/96
f 8/2/11 20/16/14 44/6/39 32/5/27
f 36/17/52 40/18/56 68/10/63 56/9/53
f 60/19/75 64/20/79 92/15/86 80/14/76
f 84/21/4 88/13/36 24/3/19 4/1/1
f 16/4/28 96/12/31 72/11/68 48/7/44
f 76/8/10 12/22/9 28/23/22 52/24/47
f 11/35/20 12/22/9 1/25/7 97/111/97
f 97/111/97 1/25/7 2/27/5 98/113/98
f 98/112/98 2/26/5 3/28/2 99/114/99
f 3/28/2 4/1/1 5/29/17 99/114/99
f 99/114/99 5/29/17 6/31/15 100/116/100
f 100/115/100 6/30/15 7/32/12 101/117/101
f 7/32/12 8/2/11 9/33/25 101/117/101
f 101/117/101 9/33/25 10/34/23 102/118/102
f 102/118/102 10/34/23 11/35/20 97/111/97
f 102/118/102 97/111/97 98/113/98 103/120/103
f 98/112/98 99/114/99 100/116/100 103/119/103
f 100/115/100 101/117/101 102/118/102 103/120/103
f 23/46/18 24/3/19 13/36/34 104/121/104
f 104/121/104 13/36/34 14/38/32 105/123/105
f 105/122/105 14/37/32 15/39/29 106/124/106
f 15/39/29 16/4/28 17/40/42 106/124/106
f 106/124/106 17/40/42 18/41/40 107/125/107
f 107/125/107 18/41/40 19/42/37 108/126/108
f 19/42/37 20/16/14 21/43/13 108/126/108
f 108/126/108 21/43/13 22/45/16 109/128/109
f 109/127/109 22/44/16 23/46/18 104/121/104
f 109/127/109 104/121/104 105/123/105 110/130/110
f 105/122/105 106/124/106 107/125/107 110/129/110
f 107/125/107 108/126/108 109/128/109 110/129/110
f 35/56/54 36/17/52 25/47/50 111/131/111
f 111/131/111 25/47/50 26/49/48 112/133/112
f 112/132/112 26/48/48 27/50/45 113/134/113
f 27/50/45 28/23/22 29/51/21 113/134/113
f 113/134/113 29/51/21 30/52/24 114/135/114
f 114/135/114 30/52/24 31/53/26 115/136/115
f 31/53/26 32/5/27 33/54/59 115/136/115
f 115/136/115 33/54/59 34/55/57 116/137/116
f 116/137/116 34/55/57 35/56/54 111/131/111
f 116/137/116 111/131/111 112/133/112 117/138/117
f 112/132/112 113/134/113 114/135/114 117/138/117
f 114/135/114 115/136/115 116/137/116 117/138/117
f 47/66/43 48/7/44 37/57/66 118/139/118
f 118/139/118 37/57/66 38/59/64 119/141/119
f 119/140/119 38/58/64 39/60/61 120/142/120
f 39/60/61 40/18/56 41/61/55 120/142/120
f 120/142/120 41/61/55 42/62/58 121/143/121
f 121/143/121 42/62/58 43/63/60 122/144/122
f 43/63/60 44/6/39 45/64/38 122/144/122
f 122/144/122 45/64/38 46/65/41 123/145/123
f 123/145/123 46/65/41 47/66/43 118/139/118
f 123/145/123 118/139/118 119/141/119 124/146/124
f 119/140/119 120/142/120 121/143/121 124/146/124
f 121/143/121 122/144/122 123/145/123 124/146/124
f 59/77/77 60/19/75 49/67/73 125/147/125
f 125/147/125 49/67/73 50/69/71 126/149/126
f 126/148/126 50/68/71 51/70/69 127/150/127
f 51/70/69 52/24/47 53/71/46 127/150/127
f 127/150/127 53/71/46 54/73/49 128/152/128
f 128/151/128 54/72/49 55/74/51 129/153/129
f 55/74/51 56/9/53 57/75/82 129/153/129
f 129/153/129 57/75/82 58/76/80 130/154/130
f 130/154/130 58/76/80 59/77/77 125/147/125
f 130/154/130 125/147/125 126/149/126 131/156/131
f 126/148/126 127/150/127 128/152/128 131/155/131
f 128/151/128 129/153/129 130/154/130 131/156/131
f 71/88/67 72/11/68 61/78/89 132/157/132
f 132/157/132 61/78/89 62/80/87 133/159/133
f 133/158/133 62/79/87 63/81/84 134/160/134
f 63/81/84 64/20/79 65/82/78 134/160/134
f 134/160/134 65/82/78 66/83/81 135/161/135
f 135/161/135 66/83/81 67/84/83 136/162/136
f 67/84/83 68/10/63 69/85/62 136/162/136
f 136/162/136 69/85/62 70/87/65 137/164/137
f 137/163/137 70/86/65 71/88/67 132/157/132
f 137/163/137 132/157/132 133/159/133 138/166/138
f 133/158/133 134/160/134 135/161/135 138/165/138
f 135/161/135 136/162/136 137/164/137 138/165/138
f 83/99/91 84/21/4 73/89/3 139/167/139
f 139/167/139 73/89/3 74/91/6 140/169/140
f 140/168/140 74/90/6 75/92/8 141/170/141
f 75/92/8 76/8/10 77/93/70 141/170/141
f 141/170/141 77/93/70 78/95/72 142/172/142
f 142/171/142 78/94/72 79/96/74 143/173/143
f 79/96/74 80/14/76 81/97/95 143/173/143
f 143/173/143 81/97/95 82/98/93 144/174/144
f 144/174/144 82/98/93 83/99/91 139/167/139
f 144/174/144 139/167/139 140/169/140 145/176/145
f 140/168/140 141/170/141 142/172/142 145/175/145
f 142/171/142 143/173/143 144/174/144 145/176/145
f 95/110/90 96/12/31 85/100/30 146/177/146
f 146/177/146 85/100/30 86/102/33 147/179/147
f 147/178/147 86/101/33 87/103/35 148/180/148
f 87/103/35 88/13/36 89/104/92 148/180/148
f 148/180/148 89/104/92 90/105/94 149/181/149
f 149/181/149 90/105/94 91/106/96 150/182/150
f 91/106/96 92/15/86 93/107/85 150/182/150
f 150/182/150 93/107/85 94/109/88 151/184/151
f 151/183/151 94/108/88 95/110/90 146/177/146
f 151/183/151 146/177/146 147/179/147 152/186/152
f 147/178/147 148/180/148 149/181/149 152/185/152
f 149/181/149 150/182/150 151/184/151 152/185/152
