# This file uses centimeters as units for non-parametric coordinates.

mtllib LY_LFLR.mtl
g default
v -99.904859 -11.728431 98.750186
v -99.633908 -12.133919 98.750186
v -99.228430 -12.404858 98.750186
v -98.750120 -12.500000 98.750186
v -98.750120 -12.404858 99.228501
v -98.750120 -12.133919 99.633980
v -98.750120 -11.728431 99.904919
v -98.750120 -11.250125 100.000072
v -99.228430 -11.250125 99.904919
v -99.633908 -11.250125 99.633980
v -99.904859 -11.250125 99.228501
v -100.000000 -11.250125 98.750186
v 99.228430 -12.404858 98.750186
v 99.633908 -12.133919 98.750186
v 99.904859 -11.728431 98.750186
v 100.000000 -11.250125 98.750186
v 99.904859 -11.250125 99.228501
v 99.633908 -11.250125 99.633980
v 99.228430 -11.250125 99.904919
v 98.750120 -11.250125 100.000072
v 98.750120 -11.728431 99.904919
v 98.750120 -12.133919 99.633980
v 98.750120 -12.404858 99.228501
v 98.750120 -12.500000 98.750186
v -99.228430 12.404858 98.750186
v -99.633908 12.133919 98.750186
v -99.904859 11.728431 98.750186
v -100.000000 11.250125 98.750186
v -99.904859 11.250125 99.228501
v -99.633908 11.250125 99.633980
v -99.228430 11.250125 99.904919
v -98.750120 11.250125 100.000072
v -98.750120 11.728431 99.904919
v -98.750120 12.133919 99.633980
v -98.750120 12.404858 99.228501
v -98.750120 12.500000 98.750186
v 99.904859 11.728431 98.750186
v 99.633908 12.133919 98.750186
v 99.228430 12.404858 98.750186
v 98.750120 12.500000 98.750186
v 98.750120 12.404858 99.228501
v 98.750120 12.133919 99.633980
v 98.750120 11.728431 99.904919
v 98.750120 11.250125 100.000072
v 99.228430 11.250125 99.904919
v 99.633908 11.250125 99.633980
v 99.904859 11.250125 99.228501
v 100.000000 11.250125 98.750186
v -99.228430 11.250125 -99.904776
v -99.633908 11.250125 -99.633837
v -99.904859 11.250125 -99.228382
v -100.000000 11.250125 -98.750067
v -99.904859 11.728431 -98.750067
v -99.633908 12.133919 -98.750067
v -99.228430 12.404858 -98.750067
v -98.750120 12.500000 -98.750067
v -98.750120 12.404858 -99.228382
v -98.750120 12.133919 -99.633837
v -98.750120 11.728431 -99.904776
v -98.750120 11.250125 -100.000000
v 99.904859 11.250125 -99.228382
v 99.633908 11.250125 -99.633837
v 99.228430 11.250125 -99.904776
v 98.750120 11.250125 -100.000000
v 98.750120 11.728431 -99.904776
v 98.750120 12.133919 -99.633837
v 98.750120 12.404858 -99.228382
v 98.750120 12.500000 -98.750067
v 99.228430 12.404858 -98.750067
v 99.633908 12.133919 -98.750067
v 99.904859 11.728431 -98.750067
v 100.000000 11.250125 -98.750067
v -99.228430 -12.404858 -98.750067
v -99.633908 -12.133919 -98.750067
v -99.904859 -11.728431 -98.750067
v -100.000000 -11.250125 -98.750067
v -99.904859 -11.250125 -99.228382
v -99.633908 -11.250125 -99.633837
v -99.228430 -11.250125 -99.904776
v -98.750120 -11.250125 -100.000000
v -98.750120 -11.728431 -99.904776
v -98.750120 -12.133919 -99.633837
v -98.750120 -12.404858 -99.228382
v -98.750120 -12.500000 -98.750067
v 99.904859 -11.728431 -98.750067
v 99.633908 -12.133919 -98.750067
v 99.228430 -12.404858 -98.750067
v 98.750120 -12.500000 -98.750067
v 98.750120 -12.404858 -99.228382
v 98.750120 -12.133919 -99.633837
v 98.750120 -11.728431 -99.904776
v 98.750120 -11.250125 -100.000000
v 99.228430 -11.250125 -99.904776
v 99.633908 -11.250125 -99.633837
v 99.904859 -11.250125 -99.228382
v 100.000000 -11.250125 -98.750067
v -99.840581 -11.681540 99.181628
v -99.594373 -12.094376 99.116492
v -99.181539 -12.340595 99.181628
v -99.116391 -12.094376 99.594450
v -99.181539 -11.681540 99.840665
v -99.594373 -11.616401 99.594450
v -99.471486 -11.971489 99.471569
v 99.181539 -12.340595 99.181628
v 99.594373 -12.094376 99.116492
v 99.840581 -11.681540 99.181628
v 99.594373 -11.616401 99.594450
v 99.181539 -11.681540 99.840665
v 99.116391 -12.094376 99.594450
v 99.471486 -11.971489 99.471569
v -99.181539 12.340595 99.181628
v -99.594373 12.094376 99.116492
v -99.840581 11.681540 99.181628
v -99.594373 11.616401 99.594450
v -99.181539 11.681540 99.840665
v -99.116391 12.094376 99.594450
v -99.471486 11.971489 99.471569
v 99.840581 11.681540 99.181628
v 99.594373 12.094376 99.116492
v 99.181539 12.340595 99.181628
v 99.116391 12.094376 99.594450
v 99.181539 11.681540 99.840665
v 99.594373 11.616401 99.594450
v 99.471486 11.971489 99.471569
v -99.181539 11.681540 -99.840498
v -99.594373 11.616401 -99.594307
v -99.840581 11.681540 -99.181461
v -99.594373 12.094376 -99.116325
v -99.181539 12.340595 -99.181461
v -99.116391 12.094376 -99.594307
v -99.471486 11.971489 -99.471426
v 99.840581 11.681540 -99.181461
v 99.594373 11.616401 -99.594307
v 99.181539 11.681540 -99.840498
v 99.116391 12.094376 -99.594307
v 99.181539 12.340595 -99.181461
v 99.594373 12.094376 -99.116325
v 99.471486 11.971489 -99.471426
v -99.181539 -12.340595 -99.181461
v -99.594373 -12.094376 -99.116325
v -99.840581 -11.681540 -99.181461
v -99.594373 -11.616401 -99.594307
v -99.181539 -11.681540 -99.840498
v -99.116391 -12.094376 -99.594307
v -99.471486 -11.971489 -99.471426
v 99.840581 -11.681540 -99.181461
v 99.594373 -12.094376 -99.116325
v 99.181539 -12.340595 -99.181461
v 99.116391 -12.094376 -99.594307
v 99.181539 -11.681540 -99.840498
v 99.594373 -11.616401 -99.594307
v 99.471486 -11.971489 -99.471426
vt 0.376562 0.998438
vt 0.376562 0.012499
vt 0.623438 0.998438
vt 0.626562 0.012499
vt 0.376562 0.237501
vt 0.623438 0.237501
vt 0.626562 0.237501
vt 0.126562 0.012499
vt 0.376562 0.498438
vt 0.623438 0.498438
vt 0.873438 0.237501
vt 0.873438 0.012499
vt 0.623438 0.751562
vt 0.376562 0.737501
vt 0.623438 0.737501
vt 0.623438 0.012499
vt 0.376562 0.251562
vt 0.623438 0.251562
vt 0.376562 0.512499
vt 0.623438 0.512499
vt 0.376562 0.751562
vt 0.373438 0.012499
vt 0.373438 0.237501
vt 0.126562 0.237501
vt 0.373287 0.005696
vt 0.375000 0.998083
vt 0.373083 -0.000000
vt 0.376118 0.998331
vt 0.376669 0.998883
vt 0.376917 -0.000000
vt 0.376917 1.000000
vt 0.376712 0.005699
vt 0.375781 0.012497
vt 0.375000 0.012496
vt 0.374219 0.012497
vt 0.623882 0.998331
vt 0.626917 -0.000000
vt 0.625000 0.998083
vt 0.626712 0.005698
vt 0.625781 0.012497
vt 0.625000 0.012496
vt 0.624219 0.012497
vt 0.623287 0.005697
vt 0.623083 1.000000
vt 0.623083 -0.000000
vt 0.623331 0.998883
vt 0.376116 0.251657
vt 0.373083 0.250000
vt 0.375000 0.251917
vt 0.373285 0.244279
vt 0.374219 0.237502
vt 0.375000 0.237503
vt 0.375781 0.237503
vt 0.376513 0.243088
vt 0.376528 0.247634
vt 0.376558 0.250439
vt 0.626716 0.244284
vt 0.625000 0.251917
vt 0.626917 0.250000
vt 0.623884 0.251657
vt 0.623442 0.250441
vt 0.623472 0.247639
vt 0.623487 0.243084
vt 0.624219 0.237503
vt 0.625000 0.237503
vt 0.625781 0.237502
vt 0.375781 0.510019
vt 0.125000 0.242461
vt 0.375000 0.507539
vt 0.125781 0.239980
vt 0.126713 0.244466
vt 0.375000 0.498083
vt 0.126917 0.250000
vt 0.376116 0.498342
vt 0.376558 0.499534
vt 0.376529 0.502274
vt 0.376517 0.506682
vt 0.874219 0.239980
vt 0.625000 0.507539
vt 0.875000 0.242461
vt 0.624219 0.510019
vt 0.623484 0.506682
vt 0.623471 0.502274
vt 0.623442 0.499534
vt 0.623884 0.498342
vt 0.873083 0.250000
vt 0.625000 0.498083
vt 0.873288 0.244471
vt 0.376116 0.751658
vt 0.126917 -0.000000
vt 0.375000 0.751917
vt 0.126712 0.005529
vt 0.125781 0.010020
vt 0.375000 0.742461
vt 0.125000 0.007539
vt 0.375781 0.739981
vt 0.376516 0.743318
vt 0.376529 0.747726
vt 0.376558 0.750466
vt 0.873287 0.005534
vt 0.625000 0.751917
vt 0.873083 -0.000000
vt 0.623884 0.751658
vt 0.623442 0.750466
vt 0.623471 0.747726
vt 0.623483 0.743318
vt 0.624219 0.739981
vt 0.875000 0.007539
vt 0.625000 0.742461
vt 0.874219 0.010020
vt 0.374159 0.006051
vt 0.375000 0.998688
vt 0.373688 -0.000000
vt 0.376290 0.998711
vt 0.376312 -0.000000
vt 0.376312 1.000000
vt 0.375853 0.006035
vt 0.375006 0.007135
vt 0.375000 1.000000
vt 0.375000 0.000000
vt 0.623710 0.998711
vt 0.626312 -0.000000
vt 0.625000 0.998688
vt 0.625853 0.006034
vt 0.625006 0.007135
vt 0.624159 0.006052
vt 0.623688 1.000000
vt 0.623688 -0.000000
vt 0.625000 0.000000
vt 0.625000 1.000000
vt 0.376197 0.250691
vt 0.373688 0.250000
vt 0.375000 0.251312
vt 0.374124 0.243779
vt 0.374938 0.242413
vt 0.375746 0.243187
vt 0.375882 0.249086
vt 0.375000 0.250000
vt 0.625868 0.243773
vt 0.625000 0.251312
vt 0.626312 0.250000
vt 0.623803 0.250695
vt 0.624118 0.248971
vt 0.624252 0.243286
vt 0.625057 0.242457
vt 0.625000 0.250000
vt 0.375772 0.505173
vt 0.125000 0.246286
vt 0.375000 0.503714
vt 0.125843 0.245360
vt 0.375000 0.498688
vt 0.126312 0.250000
vt 0.376197 0.499283
vt 0.375882 0.501015
vt 0.125000 0.250000
vt 0.375000 0.500000
vt 0.874150 0.245318
vt 0.625000 0.503714
vt 0.875000 0.246286
vt 0.624226 0.505173
vt 0.624119 0.501016
vt 0.623803 0.499283
vt 0.873688 0.250000
vt 0.625000 0.498688
vt 0.625000 0.500000
vt 0.875000 0.250000
vt 0.376197 0.750717
vt 0.126312 -0.000000
vt 0.375000 0.751312
vt 0.125850 0.004682
vt 0.375000 0.746286
vt 0.125000 0.003714
vt 0.375774 0.744827
vt 0.375881 0.748984
vt 0.125000 0.000000
vt 0.375000 0.750000
vt 0.874157 0.004640
vt 0.625000 0.751312
vt 0.873688 -0.000000
vt 0.623803 0.750717
vt 0.624117 0.748985
vt 0.624228 0.744827
vt 0.875000 0.003714
vt 0.625000 0.746286
vt 0.625000 0.750000
vt 0.875000 0.000000
vn -0.000480 -1.000000 0.000480
vn -0.382464 -0.923970 0.000366
vn -0.382464 -0.923970 -0.000366
vn -0.000480 -1.000000 -0.000480
vn -0.706973 -0.707241 0.000340
vn -0.706973 -0.707241 -0.000340
vn -0.923823 -0.382821 0.000358
vn -0.923823 -0.382821 -0.000358
vn -0.999991 -0.004139 0.000479
vn -0.999991 -0.004139 -0.000479
vn -0.000479 -0.004139 0.999991
vn -0.000358 -0.382822 0.923822
vn 0.000358 -0.382822 0.923822
vn 0.000479 -0.004139 0.999991
vn -0.000340 -0.707233 0.706980
vn 0.000340 -0.707233 0.706980
vn -0.000366 -0.923971 0.382462
vn 0.000366 -0.923971 0.382462
vn 0.000480 -1.000000 0.000480
vn -0.924019 -0.003209 0.382333
vn -0.924019 0.003209 0.382333
vn -0.999991 0.004139 0.000479
vn -0.707098 -0.002953 0.707109
vn -0.707098 0.002953 0.707109
vn -0.382338 -0.003208 0.924017
vn -0.382338 0.003208 0.924017
vn -0.000479 0.004139 0.999991
vn 0.999991 -0.004139 0.000479
vn 0.923823 -0.382821 0.000358
vn 0.923823 -0.382821 -0.000358
vn 0.999991 -0.004139 -0.000479
vn 0.706973 -0.707241 0.000340
vn 0.706973 -0.707241 -0.000340
vn 0.382464 -0.923970 0.000366
vn 0.382464 -0.923970 -0.000366
vn 0.000480 -1.000000 -0.000480
vn 0.382338 -0.003208 0.924017
vn 0.382338 0.003208 0.924017
vn 0.000479 0.004139 0.999991
vn 0.707098 -0.002953 0.707109
vn 0.707098 0.002953 0.707109
vn 0.924019 -0.003209 0.382333
vn 0.924019 0.003209 0.382333
vn 0.999991 0.004139 0.000479
vn -0.923823 0.382821 0.000358
vn -0.923823 0.382821 -0.000358
vn -0.999991 0.004139 -0.000479
vn -0.706973 0.707241 0.000340
vn -0.706973 0.707241 -0.000340
vn -0.382464 0.923970 0.000366
vn -0.382464 0.923970 -0.000366
vn -0.000480 1.000000 0.000480
vn -0.000480 1.000000 -0.000480
vn -0.000366 0.923971 0.382462
vn 0.000366 0.923971 0.382462
vn 0.000480 1.000000 0.000480
vn -0.000340 0.707233 0.706980
vn 0.000340 0.707233 0.706980
vn -0.000358 0.382822 0.923822
vn 0.000358 0.382822 0.923822
vn 0.382464 0.923970 0.000366
vn 0.382464 0.923970 -0.000366
vn 0.000480 1.000000 -0.000480
vn 0.706973 0.707241 0.000340
vn 0.706973 0.707241 -0.000340
vn 0.923823 0.382821 0.000358
vn 0.923823 0.382821 -0.000358
vn 0.999991 0.004139 -0.000479
vn -0.924016 0.003209 -0.382340
vn -0.924016 -0.003209 -0.382340
vn -0.707085 0.002953 -0.707123
vn -0.707085 -0.002953 -0.707123
vn -0.382396 0.003209 -0.923993
vn -0.382396 -0.003209 -0.923993
vn -0.000479 0.004142 -0.999991
vn -0.000479 -0.004142 -0.999991
vn -0.000358 0.382886 -0.923795
vn 0.000358 0.382886 -0.923795
vn 0.000479 0.004142 -0.999991
vn -0.000340 0.707221 -0.706993
vn 0.000340 0.707221 -0.706993
vn -0.000366 0.923967 -0.382471
vn 0.000366 0.923967 -0.382471
vn 0.382396 0.003209 -0.923993
vn 0.382396 -0.003209 -0.923993
vn 0.000479 -0.004142 -0.999991
vn 0.707085 0.002953 -0.707123
vn 0.707085 -0.002953 -0.707123
vn 0.924016 0.003209 -0.382340
vn 0.924016 -0.003209 -0.382340
vn -0.000366 -0.923967 -0.382471
vn 0.000366 -0.923967 -0.382471
vn -0.000340 -0.707221 -0.706993
vn 0.000340 -0.707221 -0.706993
vn -0.000358 -0.382886 -0.923795
vn 0.000358 -0.382886 -0.923795
vn -0.879175 -0.340262 0.333576
vn -0.653383 -0.685309 0.321623
vn -0.336916 -0.879194 0.336906
vn -0.321609 -0.685302 0.653398
vn -0.333570 -0.340257 0.879179
vn -0.686024 -0.242339 0.686034
vn -0.607201 -0.512440 0.607216
vn 0.336915 -0.879194 0.336906
vn 0.653383 -0.685309 0.321624
vn 0.879175 -0.340261 0.333576
vn 0.686023 -0.242347 0.686033
vn 0.333573 -0.340256 0.879179
vn 0.321610 -0.685302 0.653398
vn 0.607204 -0.512438 0.607215
vn -0.336915 0.879194 0.336906
vn -0.653383 0.685309 0.321624
vn -0.879175 0.340261 0.333576
vn -0.686023 0.242347 0.686033
vn -0.333573 0.340256 0.879179
vn -0.321610 0.685302 0.653398
vn -0.607204 0.512438 0.607215
vn 0.879175 0.340262 0.333576
vn 0.653383 0.685309 0.321623
vn 0.336916 0.879194 0.336906
vn 0.321609 0.685302 0.653398
vn 0.333570 0.340257 0.879179
vn 0.686024 0.242339 0.686034
vn 0.607201 0.512440 0.607216
vn -0.333590 0.340285 -0.879161
vn -0.686018 0.242354 -0.686035
vn -0.879176 0.340262 -0.333574
vn -0.653376 0.685312 -0.321633
vn -0.336911 0.879191 -0.336919
vn -0.321628 0.685302 -0.653389
vn -0.607211 0.512441 -0.607206
vn 0.879178 0.340256 -0.333575
vn 0.686017 0.242362 -0.686033
vn 0.333597 0.340283 -0.879159
vn 0.321639 0.685299 -0.653387
vn 0.336914 0.879191 -0.336915
vn 0.653379 0.685309 -0.321632
vn 0.607212 0.512439 -0.607207
vn -0.336914 -0.879191 -0.336915
vn -0.653379 -0.685309 -0.321632
vn -0.879178 -0.340256 -0.333575
vn -0.686017 -0.242362 -0.686033
vn -0.333597 -0.340283 -0.879159
vn -0.321639 -0.685299 -0.653387
vn -0.607212 -0.512439 -0.607207
vn 0.879176 -0.340262 -0.333574
vn 0.653376 -0.685312 -0.321633
vn 0.336911 -0.879191 -0.336919
vn 0.321628 -0.685302 -0.653389
vn 0.333590 -0.340285 -0.879161
vn 0.686018 -0.242354 -0.686035
vn 0.607211 -0.512441 -0.607206
s 1
g BldgFloor
usemtl lambert15SG
f 4/1/1 3/28/2 73/89/3 84/21/4
f 3/28/2 2/26/5 74/91/6 73/89/3
f 2/27/5 1/25/7 75/92/8 74/90/6
f 1/25/7 12/22/9 76/8/10 75/92/8
f 8/2/11 7/32/12 21/43/13 20/16/14
f 7/32/12 6/30/15 22/45/16 21/43/13
f 6/31/15 5/29/17 23/46/18 22/44/16
f 5/29/17 4/1/1 24/3/19 23/46/18
f 12/22/9 11/35/20 29/51/21 28/23/22
f 11/35/20 10/34/23 30/52/24 29/51/21
f 10/34/23 9/33/25 31/53/26 30/52/24
f 9/33/25 8/2/11 32/5/27 31/53/26
f 16/4/28 15/39/29 85/100/30 96/12/31
f 15/39/29 14/37/32 86/102/33 85/100/30
f 14/38/32 13/36/34 87/103/35 86/101/33
f 13/36/34 24/3/19 88/13/36 87/103/35
f 20/16/14 19/42/37 45/64/38 44/6/39
f 19/42/37 18/41/40 46/65/41 45/64/38
f 18/41/40 17/40/42 47/66/43 46/65/41
f 17/40/42 16/4/28 48/7/44 47/66/43
f 28/23/22 27/50/45 53/71/46 52/24/47
f 27/50/45 26/48/48 54/73/49 53/71/46
f 26/49/48 25/47/50 55/74/51 54/72/49
f 25/47/50 36/17/52 56/9/53 55/74/51
f 36/17/52 35/56/54 41/61/55 40/18/56
f 35/56/54 34/55/57 42/62/58 41/61/55
f 34/55/57 33/54/59 43/63/60 42/62/58
f 33/54/59 32/5/27 44/6/39 43/63/60
f 40/18/56 39/60/61 69/85/62 68/10/63
f 39/60/61 38/58/64 70/87/65 69/85/62
f 38/59/64 37/57/66 71/88/67 70/86/65
f 37/57/66 48/7/44 72/11/68 71/88/67
f 52/24/47 51/70/69 77/93/70 76/8/10
f 51/70/69 50/68/71 78/95/72 77/93/70
f 50/69/71 49/67/73 79/96/74 78/94/72
f 49/67/73 60/19/75 80/14/76 79/96/74
f 60/19/75 59/77/77 65/82/78 64/20/79
f 59/77/77 58/76/80 66/83/81 65/82/78
f 58/76/80 57/75/82 67/84/83 66/83/81
f 57/75/82 56/9/53 68/10/63 67/84/83
f 64/20/79 63/81/84 93/107/85 92/15/86
f 63/81/84 62/79/87 94/109/88 93/107/85
f 62/80/87 61/78/89 95/110/90 94/108/88
f 61/78/89 72/11/68 96/12/31 95/110/90
f 84/21/4 83/99/91 89/104/92 88/13/36
f 83/99/91 82/98/93 90/105/94 89/104/92
f 82/98/93 81/97/95 91/106/96 90/105/94
f 81/97/95 80/14/76 92/15/86 91/106/96
f 8/2/11 20/16/14 44/6/39 32/5/27
f 36/17/52 40/18/56 68/10/63 56/9/53
f 60/19/75 64/20/79 92/15/86 80/14/76
f 84/21/4 88/13/36 24/3/19 4/1/1
f 16/4/28 96/12/31 72/11/68 48/7/44
f 76/8/10 12/22/9 28/23/22 52/24/47
f 11/35/20 12/22/9 1/25/7 97/111/97
f 97/111/97 1/25/7 2/27/5 98/113/98
f 98/112/98 2/26/5 3/28/2 99/114/99
f 3/28/2 4/1/1 5/29/17 99/114/99
f 99/114/99 5/29/17 6/31/15 100/116/100
f 100/115/100 6/30/15 7/32/12 101/117/101
f 7/32/12 8/2/11 9/33/25 101/117/101
f 101/117/101 9/33/25 10/34/23 102/118/102
f 102/118/102 10/34/23 11/35/20 97/111/97
f 102/118/102 97/111/97 98/113/98 103/120/103
f 98/112/98 99/114/99 100/116/100 103/119/103
f 100/115/100 101/117/101 102/118/102 103/120/103
f 23/46/18 24/3/19 13/36/34 104/121/104
f 104/121/104 13/36/34 14/38/32 105/123/105
f 105/122/105 14/37/32 15/39/29 106/124/106
f 15/39/29 16/4/28 17/40/42 106/124/106
f 106/124/106 17/40/42 18/41/40 107/125/107
f 107/125/107 18/41/40 19/42/37 108/126/108
f 19/42/37 20/16/14 21/43/13 108/126/108
f 108/126/108 21/43/13 22/45/16 109/128/109
f 109/127/109 22/44/16 23/46/18 104/121/104
f 109/127/109 104/121/104 105/123/105 110/130/110
f 105/122/105 106/124/106 107/125/107 110/129/110
f 107/125/107 108/126/108 109/128/109 110/129/110
f 35/56/54 36/17/52 25/47/50 111/131/111
f 111/131/111 25/47/50 26/49/48 112/133/112
f 112/132/112 26/48/48 27/50/45 113/134/113
f 27/50/45 28/23/22 29/51/21 113/134/113
f 113/134/113 29/51/21 30/52/24 114/135/114
f 114/135/114 30/52/24 31/53/26 115/136/115
f 31/53/26 32/5/27 33/54/59 115/136/115
f 115/136/115 33/54/59 34/55/57 116/137/116
f 116/137/116 34/55/57 35/56/54 111/131/111
f 116/137/116 111/131/111 112/133/112 117/138/117
f 112/132/112 113/134/113 114/135/114 117/138/117
f 114/135/114 115/136/115 116/137/116 117/138/117
f 47/66/43 48/7/44 37/57/66 118/139/118
f 118/139/118 37/57/66 38/59/64 119/141/119
f 119/140/119 38/58/64 39/60/61 120/142/120
f 39/60/61 40/18/56 41/61/55 120/142/120
f 120/142/120 41/61/55 42/62/58 121/143/121
f 121/143/121 42/62/58 43/63/60 122/144/122
f 43/63/60 44/6/39 45/64/38 122/144/122
f 122/144/122 45/64/38 46/65/41 123/145/123
f 123/145/123 46/65/41 47/66/43 118/139/118
f 123/145/123 118/139/118 119/141/119 124/146/124
f 119/140/119 120/142/120 121/143/121 124/146/124
f 121/143/121 122/144/122 123/145/123 124/146/124
f 59/77/77 60/19/75 49/67/73 125/147/125
f 125/147/125 49/67/73 50/69/71 126/149/126
f 126/148/126 50/68/71 51/70/69 127/150/127
f 51/70/69 52/24/47 53/71/46 127/150/127
f 127/150/127 53/71/46 54/73/49 128/152/128
f 128/151/128 54/72/49 55/74/51 129/153/129
f 55/74/51 56/9/53 57/75/82 129/153/129
f 129/153/129 57/75/82 58/76/80 130/154/130
f 130/154/130 58/76/80 59/77/77 125/147/125
f 130/154/130 125/147/125 126/149/126 131/156/131
f 126/148/126 127/150/127 128/152/128 131/155/131
f 128/151/128 129/153/129 130/154/130 131/156/131
f 71/88/67 72/11/68 61/78/89 132/157/132
f 132/157/132 61/78/89 62/80/87 133/159/133
f 133/158/133 62/79/87 63/81/84 134/160/134
f 63/81/84 64/20/79 65/82/78 134/160/134
f 134/160/134 65/82/78 66/83/81 135/161/135
f 135/161/135 66/83/81 67/84/83 136/162/136
f 67/84/83 68/10/63 69/85/62 136/162/136
f 136/162/136 69/85/62 70/87/65 137/164/137
f 137/163/137 70/86/65 71/88/67 132/157/132
f 137/163/137 132/157/132 133/159/133 138/166/138
f 133/158/133 134/160/134 135/161/135 138/165/138
f 135/161/135 136/162/136 137/164/137 138/165/138
f 83/99/91 84/21/4 73/89/3 139/167/139
f 139/167/139 73/89/3 74/91/6 140/169/140
f 140/168/140 74/90/6 75/92/8 141/170/141
f 75/92/8 76/8/10 77/93/70 141/170/141
f 141/170/141 77/93/70 78/95/72 142/172/142
f 142/171/142 78/94/72 79/96/74 143/173/143
f 79/96/74 80/14/76 81/97/95 143/173/143
f 143/173/143 81/97/95 82/98/93 144/174/144
f 144/174/144 82/98/93 83/99/91 139/167/139
f 144/174/144 139/167/139 140/169/140 145/176/145
f 140/168/140 141/170/141 142/172/142 145/175/145
f 142/171/142 143/173/143 144/174/144 145/176/145
f 95/110/90 96/12/31 85/100/30 146/177/146
f 146/177/146 85/100/30 86/102/33 147/179/147
f 147/178/147 86/101/33 87/103/35 148/180/148
f 87/103/35 88/13/36 89/104/92 148/180/148
f 148/180/148 89/104/92 90/105/94 149/181/149
f 149/181/149 90/105/94 91/106/96 150/182/150
f 91/106/96 92/15/86 93/107/85 150/182/150
f 150/182/150 93/107/85 94/109/88 151/184/151
f 151/183/151 94/108/88 95/110/90 146/177/146
f 151/183/151 146/177/146 147/179/147 152/186/152
f 147/178/147 148/180/148 149/181/149 152/185/152
f 149/181/149 150/182/150 151/184/151 152/185/152
